<!DOCTYPE svg PUBLIC "-//W3C//DTD SVG 20010904//EN" "http://www.w3.org/TR/2001/REC-SVG-20010904/DTD/svg10.dtd">
<svg version="1.0" xmlns="http://www.w3.org/2000/svg" width="316px" height="278px" viewBox="0 0 3160 2780" preserveAspectRatio="xMidYMid meet">
<g id="layer101" fill="#160908" stroke="none">
 <path d="M1909 2698 c-65 -89 -121 -225 -158 -379 l-16 -69 -90 101 c-128 144 -141 156 -176 163 -63 12 -115 7 -150 -17 -62 -42 -64 -99 -5 -165 30 -33 56 -73 56 -85 0 -3 -9 -3 -19 0 -13 3 -24 -4 -37 -26 -15 -26 -20 -28 -38 -19 -12 6 -23 12 -25 14 -2 1 5 23 14 48 l18 46 -28 40 c-30 44 -84 80 -119 80 -30 0 -90 -64 -120 -130 -19 -40 -26 -72 -26 -116 l0 -61 -137 -6 c-82 -3 -160 -12 -191 -22 -100 -30 -167 -121 -179 -242 -5 -50 -9 -56 -53 -88 -182 -134 -324 -411 -380 -742 -18 -105 -21 -155 -18 -278 3 -88 10 -164 18 -184 l13 -34 106 7 c223 13 406 68 587 175 44 26 54 28 70 17 40 -27 179 -78 261 -96 46 -10 86 -20 88 -22 1 -2 14 -26 28 -54 85 -169 321 -374 530 -460 115 -47 129 -46 156 16 28 66 65 224 91 395 12 77 23 145 25 151 2 8 18 7 57 -3 37 -10 87 -13 168 -10 220 9 384 86 535 250 82 90 142 127 204 127 35 0 38 6 15 32 -15 16 -15 18 -1 24 20 7 57 65 57 89 0 13 -6 16 -24 11 l-24 -6 19 50 c10 28 19 66 19 85 0 21 10 51 24 73 47 71 69 157 74 289 8 205 -40 347 -171 508 -157 195 -370 328 -742 465 -93 35 -187 71 -207 81 -53 27 -64 24 -99 -23z"/>
 </g>
<g id="layer102" fill="#5e2009" stroke="none">
 <path d="M1909 2698 c-17 -24 -45 -70 -61 -103 -33 -65 -88 -219 -88 -244 1 -9 16 29 35 85 40 122 82 206 127 257 l33 37 130 -50 c72 -28 173 -67 225 -87 228 -87 397 -186 532 -312 172 -160 258 -317 278 -504 7 -66 7 -68 9 -21 3 122 -64 284 -172 419 -157 194 -370 328 -742 465 -93 35 -187 71 -207 81 -53 27 -64 24 -99 -23z"/>
 <path d="M1926 2665 c-41 -53 -93 -170 -117 -265 -18 -67 -23 -113 -23 -220 0 -74 2 -162 5 -195 10 -103 88 -243 195 -351 44 -43 166 -119 279 -173 61 -29 118 -56 127 -62 10 -5 22 -9 28 -9 18 0 196 -88 209 -104 8 -9 9 -16 3 -16 -6 0 -12 4 -14 8 -1 5 -46 25 -98 46 -52 21 -111 44 -130 53 -61 26 -294 142 -332 165 -37 23 -60 20 -40 -4 16 -20 62 -163 62 -194 0 -28 -45 -125 -81 -173 -19 -26 -20 -33 -9 -92 7 -35 13 -132 14 -216 0 -83 4 -154 7 -157 3 -4 32 -13 63 -21 75 -20 220 -19 293 1 32 9 69 19 83 22 13 3 45 17 70 31 25 15 56 32 70 39 28 15 108 87 161 148 43 48 95 87 111 82 6 -2 -3 -13 -19 -24 -17 -10 -53 -46 -81 -79 -87 -104 -184 -169 -326 -217 -111 -37 -264 -49 -361 -27 -33 7 -64 13 -69 14 -6 0 -16 -40 -23 -90 -29 -204 -82 -438 -112 -494 -7 -12 -21 -21 -34 -20 l-22 0 21 9 c41 16 101 259 111 450 3 73 11 128 17 132 16 11 14 299 -2 370 -14 62 -23 68 -56 40 -25 -20 -19 -12 51 78 28 36 63 90 78 120 27 53 27 57 16 114 -16 74 -82 203 -133 257 -66 71 -224 309 -166 251 20 -20 31 -13 25 16 -18 83 -27 144 -30 202 -3 36 -11 76 -19 90 -22 41 -51 84 -68 100 -57 56 -99 111 -94 124 8 20 -58 82 -96 90 -112 22 -200 -19 -200 -95 0 -30 41 -95 58 -91 7 1 11 -1 10 -5 -2 -13 14 -43 21 -39 3 2 7 -6 7 -19 1 -17 -3 -21 -16 -18 -12 3 -24 -5 -36 -25 -15 -26 -20 -29 -40 -20 -12 6 -25 19 -27 29 -3 11 -1 17 3 14 5 -3 14 11 20 30 11 33 10 40 -16 76 -30 43 -58 64 -74 54 -6 -4 -9 -1 -8 7 5 24 -52 22 -78 -3 -13 -12 -21 -25 -19 -30 3 -4 0 -11 -6 -15 -8 -5 -10 -2 -5 7 4 8 -2 3 -14 -10 -11 -13 -18 -31 -16 -38 4 -9 1 -11 -6 -7 -8 5 -9 2 -5 -10 4 -9 3 -15 -2 -12 -14 9 -31 -52 -31 -114 l0 -57 -137 -6 c-82 -3 -160 -12 -191 -22 -100 -30 -167 -121 -179 -242 -5 -50 -9 -56 -53 -88 -137 -101 -244 -269 -323 -507 -40 -120 -78 -323 -76 -407 1 -46 3 -39 11 39 5 52 18 137 28 189 11 52 21 99 21 105 1 6 4 -2 8 -19 4 -18 -3 -69 -17 -130 -20 -83 -24 -130 -25 -272 -1 -94 -3 -170 -5 -168 -2 2 -7 34 -12 72 l-9 68 4 -70 c2 -38 9 -85 16 -104 l12 -34 106 7 c223 13 407 68 585 174 l50 29 57 -28 c73 -36 206 -81 227 -77 10 2 -14 12 -53 21 -38 10 -107 36 -153 58 l-83 40 -27 -19 c-44 -32 -185 -99 -253 -122 -88 -30 -229 -60 -229 -49 0 5 9 9 20 9 40 0 188 46 270 83 54 25 148 87 173 114 17 20 18 19 100 -20 97 -47 109 -52 162 -68 22 -6 51 -15 65 -20 14 -4 51 -10 83 -14 57 -6 57 -7 83 -58 47 -94 114 -185 193 -260 92 -88 227 -182 237 -166 4 8 9 8 13 1 3 -6 33 -27 66 -46 78 -48 54 -46 -52 4 -217 101 -406 277 -515 479 -14 25 -23 31 -50 30 l-33 -1 33 -8 c39 -9 34 -3 65 -66 85 -169 321 -374 530 -460 115 -47 129 -46 156 16 28 66 65 224 91 395 12 77 23 145 25 151 2 8 18 7 57 -3 37 -10 87 -13 168 -10 220 9 384 86 535 250 82 90 142 127 204 127 33 0 39 8 19 28 -16 16 -19 42 -3 36 14 -6 55 54 55 81 0 13 -6 16 -24 11 l-24 -6 19 50 c10 28 19 66 19 85 0 21 10 51 24 73 37 55 67 157 71 236 l4 71 -8 -65 c-13 -96 -29 -148 -67 -218 -19 -34 -34 -76 -34 -93 0 -17 -4 -28 -10 -24 -5 3 -28 -6 -50 -21 -22 -15 -42 -25 -44 -23 -2 2 2 20 10 39 7 19 13 27 13 18 1 -25 10 -22 34 9 91 115 126 223 127 388 0 190 -76 355 -242 525 -88 90 -158 150 -176 150 -7 0 -27 13 -45 30 -52 48 -298 165 -432 205 -66 19 -148 49 -181 65 -34 17 -64 30 -67 30 -2 0 -17 -16 -31 -35z m548 -507 c-4 -6 -10 -5 -15 3 -14 22 -10 33 6 19 8 -7 12 -17 9 -22z m-971 -53 c67 -9 53 -17 -17 -9 -48 6 -56 10 -56 27 0 19 1 19 13 5 6 -9 34 -19 60 -23z m-688 -5 c-27 -5 -63 -8 -80 -8 -25 1 -23 2 10 8 22 4 58 7 80 7 38 0 37 0 -10 -7z m-233 -77 c-55 -56 -72 -104 -80 -216 -3 -51 -8 -76 -16 -74 -32 11 -149 -86 -208 -172 -40 -59 -123 -226 -144 -288 -9 -26 -20 -52 -26 -58 -17 -18 53 168 95 250 60 120 169 250 258 308 22 15 27 27 32 75 7 78 42 156 86 192 54 45 56 36 3 -17z m986 -35 c7 -7 12 -22 12 -35 0 -30 -38 -31 -69 -1 -23 20 -23 22 -5 35 22 16 46 17 62 1z m137 -18 c9 -16 14 -30 12 -30 -2 0 -13 14 -25 30 -13 17 -18 30 -13 30 6 0 17 -13 26 -30z m-600 -188 c-26 -23 -108 -45 -186 -49 -109 -7 -162 2 -157 25 2 11 12 16 28 15 74 -8 238 -4 260 5 30 13 68 16 55 4z m540 -249 c27 -71 71 -134 121 -172 30 -23 44 -41 44 -57 0 -13 -4 -24 -10 -24 -15 0 -74 56 -104 99 -33 47 -88 201 -72 201 2 0 11 -21 21 -47z m-1265 -26 c0 -1 -32 -34 -72 -72 -39 -39 -65 -61 -58 -50 23 32 130 133 130 122z m2608 -324 c-2 -13 3 -17 20 -16 12 2 22 -2 22 -7 0 -6 -11 -10 -24 -10 -14 0 -36 -4 -50 -10 -33 -12 -33 -6 2 30 32 35 34 35 30 13z m-2486 -57 c10 -19 10 -20 -6 -7 -9 8 -22 24 -28 35 -10 19 -10 20 6 7 9 -8 22 -24 28 -35z m2458 -60 c0 -10 -7 -12 -22 -8 -21 5 -21 6 -2 13 10 4 20 8 22 8 1 1 2 -5 2 -13z m-1021 -306 c0 -23 -1 -23 -9 -5 -5 11 -9 29 -9 40 -1 17 1 17 9 5 5 -8 9 -26 9 -40z m-399 -73 c0 -2 -21 -15 -46 -28 l-46 -23 4 -66 5 -65 -12 50 c-21 82 -20 88 33 112 47 21 62 26 62 20z m-1130 -11 c0 -2 -11 -11 -25 -20 -21 -14 -25 -14 -25 -2 0 8 10 17 23 19 12 2 23 5 25 6 1 0 2 -1 2 -3z m-275 -124 c25 3 48 2 51 -3 3 -5 -22 -9 -54 -9 -46 0 -61 4 -66 16 -5 14 -4 15 9 4 10 -8 32 -11 60 -8z m1460 -247 c22 -8 32 -14 22 -15 -11 0 -16 -5 -13 -12 3 -7 9 -21 12 -30 4 -10 10 -18 15 -18 5 0 9 -6 9 -12 0 -13 -61 51 -80 85 -13 20 -15 20 35 2z"/>
 <path d="M1591 2396 c9 -12 37 -43 62 -71 25 -27 54 -61 65 -75 11 -14 22 -23 25 -20 3 3 8 28 11 55 l5 50 -11 -43 -11 -43 -81 84 c-45 46 -74 74 -65 63z"/>
 </g>
<g id="layer103" fill="#35434c" stroke="none">
 <path d="M1909 2698 c-17 -24 -45 -70 -61 -103 -33 -65 -88 -219 -88 -244 1 -9 16 29 35 85 40 122 82 206 127 257 l33 37 130 -50 c72 -28 173 -67 225 -87 228 -87 397 -186 532 -312 172 -160 258 -317 278 -504 7 -66 7 -68 9 -21 3 122 -64 284 -172 419 -157 194 -370 328 -742 465 -93 35 -187 71 -207 81 -53 27 -64 24 -99 -23z"/>
 <path d="M1926 2665 c-41 -53 -93 -170 -117 -265 -18 -68 -23 -112 -23 -220 0 -166 6 -219 34 -291 54 -147 171 -274 335 -366 61 -34 130 -70 155 -81 25 -11 66 -29 91 -40 25 -12 70 -31 100 -42 62 -25 114 -54 147 -83 31 -29 28 -42 -5 -19 -36 24 -87 48 -253 117 -74 31 -186 84 -248 117 -62 33 -115 58 -117 56 -3 -2 8 -33 22 -68 20 -47 27 -83 28 -130 0 -60 -3 -71 -44 -135 l-44 -70 12 -92 c6 -50 11 -148 11 -216 0 -141 -3 -136 98 -156 130 -26 288 1 427 73 62 32 102 63 177 139 57 57 115 106 140 117 59 27 84 24 29 -2 -25 -12 -63 -42 -85 -67 -146 -163 -240 -224 -421 -271 -38 -11 -60 -19 -48 -19 13 -1 65 13 117 29 125 40 221 104 321 213 82 90 142 127 204 127 35 0 38 6 15 32 -15 16 -15 18 -1 24 20 7 57 65 57 89 0 13 -6 16 -24 11 l-24 -6 19 50 c10 28 19 66 19 85 0 21 10 51 24 73 37 55 67 157 71 236 l4 71 -8 -65 c-13 -96 -29 -148 -67 -218 -20 -37 -34 -77 -34 -97 0 -19 -9 -57 -19 -85 -19 -51 -16 -65 13 -54 28 11 18 -23 -21 -68 -31 -36 -45 -44 -75 -45 -49 -2 -48 3 1 17 21 5 50 19 65 31 30 24 36 55 9 44 -10 -4 -34 -9 -53 -12 l-35 -6 38 34 c38 34 74 111 55 118 -5 2 -19 -6 -31 -17 -20 -18 -67 -46 -67 -40 0 2 7 21 15 43 8 22 14 60 15 84 0 44 0 44 -20 26 -30 -27 -32 -14 -4 19 14 15 28 25 32 21 4 -4 6 -36 5 -72 -1 -64 -1 -65 17 -47 34 35 91 138 111 204 28 93 35 227 15 320 -37 173 -173 370 -356 514 -39 31 -46 33 -51 18 -5 -14 -7 -13 -14 7 -4 13 -19 34 -34 47 -51 45 -303 162 -426 199 -66 19 -148 49 -181 65 -34 17 -64 30 -67 30 -2 0 -17 -16 -31 -35z m724 -339 c0 -10 -50 8 -54 20 -5 12 0 12 24 -1 17 -9 30 -17 30 -19z m-23 -98 c-2 -13 -4 -3 -4 22 0 25 2 35 4 23 2 -13 2 -33 0 -45z m-144 -81 c-4 -6 -12 -3 -20 8 -20 28 -16 41 7 20 11 -10 17 -22 13 -28z m-138 -66 l30 -11 -28 5 c-31 6 -31 6 11 -55 l24 -35 -32 35 c-36 40 -73 103 -49 84 8 -6 28 -16 44 -23z m-525 -93 c0 -6 17 -34 37 -62 20 -28 28 -44 18 -36 -20 16 -75 99 -75 113 0 4 5 5 10 2 6 -3 10 -11 10 -17z m582 -30 c22 -33 31 -68 19 -68 -6 0 -11 9 -11 20 0 12 -7 32 -16 45 -9 14 -14 25 -11 25 2 0 11 -10 19 -22z m-267 -46 c-2 -2 -17 4 -34 13 -18 9 -36 13 -41 10 -6 -3 -10 -4 -10 -1 0 2 -3 11 -6 20 -4 10 9 7 44 -12 28 -15 49 -28 47 -30z m-185 -62 c8 13 10 12 10 -2 0 -25 -23 -22 -46 5 l-19 22 23 -20 c20 -16 25 -17 32 -5z"/>
 <path d="M1378 2513 c18 -2 45 -2 60 0 15 2 0 4 -33 4 -33 0 -45 -2 -27 -4z"/>
 <path d="M1299 2481 c-31 -31 -37 -67 -18 -104 17 -33 61 -77 71 -71 8 5 82 -145 75 -153 -3 -2 -17 26 -32 62 -16 36 -33 69 -38 72 -5 3 -4 -4 2 -15 15 -28 14 -31 -8 -25 -12 3 -24 -5 -37 -24 -10 -15 -27 -29 -36 -29 -10 -1 -16 2 -13 6 3 5 0 10 -7 12 -8 3 -6 17 7 51 l18 47 -28 40 c-30 44 -84 80 -119 80 -47 0 -147 -144 -145 -210 0 -17 4 -10 13 21 14 55 55 127 87 154 22 19 22 19 -1 -11 -34 -41 -76 -137 -90 -205 l-13 -56 -136 -6 c-80 -3 -158 -12 -189 -22 -100 -30 -167 -121 -179 -242 -5 -50 -9 -56 -54 -89 -70 -51 -147 -140 -201 -232 -50 -82 -132 -276 -125 -295 2 -6 16 25 31 69 64 179 161 331 272 423 29 24 58 47 65 52 7 4 16 35 20 69 11 79 44 154 82 186 33 28 91 54 116 53 9 0 2 -6 -14 -12 -57 -22 -91 -49 -117 -91 -43 -68 -52 -112 -52 -248 -1 -71 -4 -128 -8 -128 -5 0 -8 27 -8 60 0 71 -6 73 -74 28 -97 -64 -205 -231 -282 -436 -34 -89 -29 -97 13 -22 76 136 192 260 290 310 26 13 51 29 55 34 4 6 11 7 15 2 4 -5 3 -11 -4 -13 -32 -11 -143 -91 -191 -137 -56 -52 -132 -157 -172 -235 -74 -147 -115 -550 -63 -629 12 -20 20 -23 49 -17 19 3 69 8 112 10 163 7 395 97 493 191 l36 35 74 -35 c166 -76 217 -93 340 -110 42 -6 48 -10 65 -49 58 -127 166 -254 309 -362 109 -82 129 -88 74 -24 -60 71 -125 167 -145 214 -25 61 -10 49 19 -14 29 -64 76 -111 110 -111 17 0 19 -2 7 -10 -20 -12 1 -51 62 -111 43 -44 152 -108 164 -97 26 27 76 241 96 410 13 116 6 187 -33 333 -29 111 -31 123 -11 80 18 -38 41 -123 58 -210 l7 -40 8 40 c13 67 10 208 -7 296 -9 46 -18 87 -21 92 -3 5 -16 -2 -29 -14 -42 -40 -38 -12 7 43 24 29 46 55 49 58 3 3 17 23 32 45 41 60 57 115 49 161 -15 79 -91 209 -203 348 -26 33 -72 100 -102 150 -101 169 -153 210 -288 223 -40 4 -63 9 -50 11 12 2 22 11 22 19 0 14 2 14 18 0 10 -10 32 -17 48 -17 34 0 106 -31 149 -64 16 -13 50 -55 75 -95 41 -65 72 -95 55 -53 -9 22 -22 110 -30 196 -6 69 -34 141 -72 181 -51 56 -121 143 -132 163 -19 36 -57 54 -122 59 -66 4 -99 -12 -94 -45 1 -9 0 -11 -2 -4 -8 23 -28 7 -31 -25 -2 -23 5 -40 29 -67 17 -20 29 -39 27 -42 -3 -3 -20 14 -37 38 -40 55 -40 91 0 129 17 16 28 29 24 29 -3 0 -20 -13 -36 -29z m-99 -86 c0 -1 -11 -5 -25 -7 -20 -4 -23 -2 -14 8 8 10 39 10 39 -1z m49 -53 c14 -12 14 -13 -2 -8 -10 3 -28 1 -40 -5 -21 -12 -22 -11 -4 8 10 12 15 28 11 39 -5 17 -4 17 7 -1 7 -11 20 -26 28 -33z m-18 -140 c-6 -12 -11 -30 -11 -41 0 -14 -6 -21 -17 -20 -11 0 -13 3 -5 6 6 2 12 11 12 18 0 21 20 68 26 62 3 -3 1 -14 -5 -25z m-137 -88 c43 -1 81 -6 86 -10 5 -5 -96 -9 -233 -9 -133 0 -222 3 -197 7 25 3 91 7 148 7 l102 1 1 28 1 27 7 -25 c7 -24 11 -25 85 -26z m214 -21 c-10 -2 -26 -2 -35 0 -10 3 -2 5 17 5 19 0 27 -2 18 -5z m276 -126 c14 -39 -2 -52 -48 -37 -64 21 -57 73 9 68 22 -2 32 -10 39 -31z m-454 -177 c-50 -38 -143 -60 -254 -60 -112 0 -138 10 -113 44 10 14 18 15 40 7 47 -18 215 -13 272 8 67 25 86 25 55 1z m510 -232 c30 -84 89 -168 139 -201 36 -24 40 -31 35 -55 -9 -37 -8 -37 -48 -7 -65 50 -133 177 -151 283 -4 23 -5 42 -2 42 2 0 15 -28 27 -62z m-1151 -394 c6 4 11 1 11 -8 0 -8 3 -23 6 -33 3 -10 -13 2 -35 27 -34 37 -42 42 -51 30 -11 -17 -13 -1 -3 26 6 15 10 13 34 -15 15 -18 32 -30 38 -27z m-109 -4 c0 -5 -4 -10 -10 -10 -5 0 -10 -10 -10 -22 0 -12 -3 -19 -6 -15 -9 9 5 57 16 57 6 0 10 -4 10 -10z m22 -36 c-8 -15 -9 -15 -15 0 -4 10 -3 15 3 11 6 -3 10 2 11 12 0 10 3 13 5 6 3 -7 1 -20 -4 -29z m132 -74 c5 -17 4 -20 -2 -10 -5 8 -13 26 -16 40 -5 17 -4 20 2 10 5 -8 13 -26 16 -40z m-178 5 c-3 -8 -11 -15 -18 -14 -10 0 -10 2 0 6 6 2 12 14 13 26 0 12 3 16 6 9 3 -7 2 -19 -1 -27z m264 -141 c0 -24 -84 -136 -145 -192 -36 -33 -92 -73 -125 -91 -65 -35 -81 -36 -25 -1 19 12 33 26 29 31 -3 5 4 9 16 9 49 0 174 116 221 205 l22 42 -28 39 -27 39 30 -35 c18 -19 32 -40 32 -46z m1080 -129 c0 -8 -4 -15 -8 -15 -5 0 -57 -29 -117 -65 -59 -36 -112 -65 -118 -65 -11 0 -4 -111 9 -144 5 -12 4 -17 -3 -13 -9 5 -16 36 -38 149 -2 12 13 22 56 38 33 11 94 45 137 74 42 30 78 54 80 55 1 0 2 -6 2 -14z m-1380 -25 c-8 -5 -26 -9 -40 -9 -23 1 -23 2 5 9 43 11 52 11 35 0z m-73 -30 c1 -11 -2 -18 -8 -15 -11 7 -12 35 -1 35 4 0 8 -9 9 -20z m79 -58 c-5 -4 -66 26 -66 33 0 3 16 -3 35 -12 19 -9 33 -18 31 -21z m1464 -122 c26 -25 18 -21 -42 24 -21 16 -35 32 -32 37 3 5 15 -1 27 -14 12 -12 33 -33 47 -47z m60 -57 c0 -20 -39 -70 -69 -89 -19 -12 -15 -6 11 21 40 39 58 77 39 83 -6 2 -11 8 -11 14 0 6 6 6 15 -2 8 -7 15 -19 15 -27z m-160 -170 c29 -25 39 -44 23 -42 -10 1 -67 69 -59 69 3 0 20 -12 36 -27z"/>
 <path d="M1486 2500 c11 -4 33 -23 48 -41 16 -18 59 -67 96 -109 38 -41 78 -86 88 -100 11 -14 22 -23 25 -20 3 3 8 28 11 55 l6 50 -13 -43 -12 -42 -90 101 c-123 138 -145 159 -164 158 -12 0 -11 -2 5 -9z"/>
 <path d="M82 1182 c-21 -68 -52 -272 -50 -325 1 -38 2 -42 5 -17 11 112 27 215 44 289 20 87 21 120 1 53z"/>
 <path d="M775 733 c-46 -36 -247 -124 -340 -148 -110 -29 -349 -55 -364 -39 -5 5 -17 41 -25 79 -14 63 -15 65 -11 18 3 -28 11 -66 17 -84 l11 -32 106 7 c223 13 407 68 585 174 l50 29 57 -28 c73 -36 206 -81 227 -77 10 2 -14 12 -53 21 -38 10 -107 36 -152 58 -45 21 -83 39 -85 39 -2 0 -12 -8 -23 -17z"/>
 <path d="M1996 668 c-2 -7 -9 -51 -16 -98 -26 -187 -80 -425 -110 -480 -16 -31 -54 -23 -176 34 -212 101 -398 275 -506 475 -14 25 -23 31 -50 30 l-33 -1 33 -8 c39 -9 34 -3 65 -66 85 -169 321 -374 530 -460 114 -47 130 -46 155 14 31 72 52 159 87 367 24 139 36 189 46 187 7 -2 27 -5 43 -8 21 -3 17 0 -14 11 -55 18 -50 18 -54 3z"/>
 <path d="M2148 643 c28 -2 76 -2 105 0 28 2 5 3 -53 3 -58 0 -81 -1 -52 -3z"/>
 </g>
<g id="layer104" fill="#983002" stroke="none">
 <path d="M1929 2723 c-28 -34 -34 -49 -7 -18 24 27 29 29 55 19 58 -23 67 -25 33 -5 -44 25 -63 26 -81 4z"/>
 <path d="M1932 2665 c-76 -86 -139 -286 -149 -471 -5 -104 -4 -114 20 -167 14 -31 40 -78 58 -104 25 -37 27 -44 10 -28 -13 11 -36 43 -52 70 l-29 50 6 -40 c16 -105 85 -227 186 -328 61 -60 214 -156 328 -205 25 -11 66 -29 91 -40 25 -12 70 -31 100 -42 62 -25 114 -54 147 -83 31 -29 28 -42 -5 -19 -36 24 -87 48 -253 117 -74 31 -186 84 -248 117 -63 33 -115 58 -117 56 -3 -2 8 -33 23 -68 20 -48 27 -82 27 -130 0 -60 -4 -71 -44 -135 l-44 -70 12 -92 c6 -50 11 -148 11 -216 0 -141 -3 -136 98 -156 130 -26 288 1 427 73 62 32 102 63 177 139 115 116 162 141 238 131 52 -7 64 2 34 27 -14 11 -13 15 8 31 13 9 19 18 14 18 -5 0 -18 -7 -28 -17 -17 -15 -17 -17 -2 -35 16 -17 16 -18 -5 -18 -12 0 -20 4 -16 9 3 6 -14 11 -37 13 l-43 3 41 13 c23 7 53 21 68 33 14 11 26 17 26 12 0 -4 7 1 15 11 20 27 19 56 -2 56 -15 0 -15 -2 -4 -9 12 -8 12 -14 4 -33 -10 -19 -12 -20 -12 -4 -1 13 -6 16 -18 11 -10 -4 -34 -9 -53 -12 l-35 -6 38 34 c38 34 74 111 55 118 -5 2 -19 -6 -31 -17 -20 -18 -67 -46 -67 -40 0 2 7 21 15 43 8 22 14 60 15 84 0 44 0 44 -20 26 -30 -27 -32 -14 -4 19 14 15 28 25 32 21 4 -4 6 -36 5 -72 -1 -64 -1 -65 17 -47 11 11 35 46 55 79 103 172 111 402 20 593 -57 120 -209 300 -323 381 l-32 22 0 -30 c0 -31 -21 -43 -35 -21 -16 26 -24 5 -20 -52 l4 -63 -9 57 c-5 32 -17 70 -27 85 -19 29 -15 28 39 -9 33 -23 38 -23 38 3 0 12 -16 37 -35 55 -56 52 -301 168 -453 213 -73 22 -153 51 -177 65 l-43 26 -30 -35z m537 -489 c14 -15 18 -26 12 -30 -6 -4 -17 7 -26 24 -19 36 -16 38 14 6z m-109 -100 c8 -3 2 -4 -13 -1 -32 7 -34 10 29 -80 23 -33 45 -70 48 -82 7 -20 4 -23 -21 -22 -17 1 -21 3 -10 6 29 8 20 32 -43 119 -33 45 -60 85 -60 88 0 4 12 0 28 -7 15 -8 34 -17 42 -21z m-402 -81 c6 -14 10 -25 7 -25 -7 0 -35 32 -35 41 0 18 17 9 28 -16z m164 -70 c18 -8 27 -14 20 -15 -7 0 -26 7 -43 15 -16 9 -33 14 -38 11 -4 -3 -13 6 -20 20 l-11 26 29 -21 c16 -12 45 -28 63 -36z m-172 -75 c8 13 10 12 10 -2 0 -25 -23 -22 -46 5 l-19 22 23 -20 c20 -16 25 -17 32 -5z"/>
 <path d="M2140 2662 c8 -5 26 -13 40 -16 17 -5 20 -4 10 2 -8 5 -26 13 -40 16 -17 5 -20 4 -10 -2z"/>
 <path d="M2390 2565 c14 -8 30 -14 35 -14 6 0 -1 6 -15 14 -14 8 -29 14 -35 14 -5 0 1 -6 15 -14z"/>
 <path d="M2461 2536 c10 -9 129 -66 129 -61 0 5 -116 65 -126 65 -4 0 -5 -2 -3 -4z"/>
 <path d="M1378 2513 c18 -2 45 -2 60 0 15 2 0 4 -33 4 -33 0 -45 -2 -27 -4z"/>
 <path d="M1299 2481 c-32 -33 -37 -67 -15 -109 16 -30 64 -79 74 -74 3 2 26 -38 51 -90 l46 -93 46 -6 c92 -13 158 -61 219 -158 41 -65 73 -96 55 -53 -4 9 -15 76 -25 147 -17 129 -35 185 -77 230 -51 56 -121 143 -132 163 -19 36 -57 54 -122 59 -66 4 -99 -12 -94 -45 1 -9 0 -11 -2 -4 -8 23 -28 7 -31 -25 -2 -23 5 -40 29 -67 17 -20 29 -39 26 -42 -3 -3 -19 13 -36 37 -41 55 -40 92 0 130 17 16 28 29 24 29 -3 0 -20 -13 -36 -29z"/>
 <path d="M1481 2503 c9 -2 71 -64 139 -138 67 -74 124 -135 126 -135 2 0 4 15 3 33 -1 27 -2 28 -7 9 -6 -20 -16 -12 -97 79 -124 139 -145 159 -164 158 -14 -1 -14 -2 0 -6z"/>
 <path d="M2655 2434 c6 -6 42 -34 82 -63 40 -29 116 -98 170 -154 53 -56 82 -82 63 -57 -47 61 -134 147 -206 202 -60 45 -127 90 -109 72z"/>
 <path d="M1078 2393 c-42 -43 -88 -136 -87 -173 1 -19 3 -16 10 13 13 54 53 128 85 157 l28 25 -24 -31 c-34 -41 -76 -137 -91 -206 l-12 -57 -106 -4 -106 -3 113 -2 112 -2 1 28 1 27 10 -28 c10 -27 12 -28 86 -28 43 -1 120 -4 172 -7 58 -4 -30 -7 -225 -7 -338 0 -361 -3 -431 -49 -36 -23 -75 -82 -95 -141 -8 -24 -13 -91 -13 -167 -1 -71 -4 -128 -8 -128 -5 0 -8 27 -8 60 0 71 -6 73 -74 28 -97 -64 -205 -231 -282 -436 -34 -89 -29 -97 13 -22 76 136 192 260 290 310 26 13 51 29 55 34 4 6 11 7 15 2 4 -5 3 -11 -4 -13 -32 -11 -143 -91 -191 -137 -56 -52 -132 -157 -172 -235 -74 -147 -115 -550 -63 -629 12 -20 20 -23 49 -17 19 3 69 8 112 10 163 7 395 97 493 191 l36 35 84 -39 c150 -69 212 -89 335 -107 37 -6 44 -11 60 -48 58 -127 166 -254 309 -362 109 -82 129 -88 74 -24 -100 118 -165 233 -187 334 -23 108 -26 101 40 125 32 12 95 45 138 75 l80 53 0 -42 c0 -22 -4 -48 -9 -55 -6 -10 -8 0 -4 27 3 23 3 42 -1 42 -3 0 -38 -21 -77 -46 -39 -25 -92 -55 -116 -67 l-45 -22 6 -58 c7 -66 48 -177 83 -223 23 -32 45 -43 113 -63 l35 -11 -37 6 c-25 3 -38 1 -38 -7 0 -18 40 -71 84 -112 41 -38 142 -94 152 -85 26 27 76 241 96 410 13 116 6 187 -33 333 -29 111 -31 123 -10 79 10 -23 27 -74 36 -115 31 -139 27 -128 35 -94 19 77 0 344 -27 388 -3 5 -16 -2 -29 -14 -42 -40 -38 -12 7 43 24 29 46 55 49 58 19 19 62 92 74 127 12 35 13 49 1 92 -24 93 -86 198 -197 335 -26 33 -72 100 -102 150 -101 169 -153 210 -288 223 -40 4 -63 9 -50 11 26 4 27 10 7 59 -17 43 -60 70 -82 51 -11 -8 -12 -7 -7 6 3 9 14 16 23 17 12 0 13 2 2 6 -8 3 -22 -5 -32 -18 -20 -26 -25 -44 -9 -34 6 3 7 -1 4 -10 -7 -17 -30 -14 -27 4 2 6 0 11 -5 11 -4 0 -13 4 -21 9 -11 7 -11 16 4 55 l18 46 -28 40 c-30 44 -84 80 -119 80 -12 0 -38 -16 -58 -37z m120 1 c2 -1 -9 -4 -23 -6 -19 -4 -23 -2 -15 7 5 6 6 16 2 21 -4 4 2 2 13 -6 11 -8 21 -15 23 -16z m51 -52 c14 -12 14 -13 -2 -8 -10 3 -28 1 -40 -5 -21 -12 -22 -11 -4 8 10 12 15 28 11 39 -5 17 -4 17 7 -1 7 -11 20 -26 28 -33z m-15 -149 c-8 -8 -14 -23 -14 -34 0 -12 -7 -19 -17 -18 -11 0 -13 3 -5 6 6 2 12 11 12 18 0 8 5 26 11 42 8 21 12 24 19 14 5 -9 3 -20 -6 -28z m350 -226 c14 -39 -2 -52 -48 -37 -64 21 -57 73 9 68 22 -2 32 -10 39 -31z m-454 -177 c-50 -38 -143 -60 -254 -60 -112 0 -138 10 -113 44 10 14 18 15 40 7 46 -18 215 -12 272 9 68 24 86 24 55 0z m510 -232 c30 -84 89 -168 139 -201 36 -24 40 -31 35 -55 -9 -37 -8 -37 -48 -7 -65 50 -133 177 -151 283 -4 23 -5 42 -2 42 2 0 15 -28 27 -62z m-1154 -395 c4 4 17 -24 30 -60 13 -37 22 -69 20 -71 -2 -2 -9 12 -15 31 -12 35 -77 127 -91 127 -3 0 -13 -21 -21 -47 -13 -40 -16 -44 -21 -25 -3 12 -3 20 2 17 4 -3 13 17 20 43 l12 47 29 -34 c16 -19 32 -32 35 -28z m-106 3 c0 -2 -7 -17 -15 -32 -15 -29 -22 -13 -9 20 5 14 24 23 24 12z m-20 -101 c0 -17 -5 -25 -17 -24 -11 0 -13 3 -5 6 6 2 12 13 12 24 0 10 2 19 5 19 3 0 5 -11 5 -25z m-90 1 c0 -2 -16 -6 -35 -8 -19 -2 -35 0 -35 4 0 4 16 8 35 8 19 0 35 -2 35 -4z m-63 -73 c-3 -10 -5 -2 -5 17 0 19 2 27 5 18 2 -10 2 -26 0 -35z m392 -122 c-36 -70 -172 -200 -249 -239 -58 -30 -60 -25 -5 13 l20 13 -20 6 c-46 15 -110 54 -113 70 -2 9 1 16 7 16 6 0 10 -5 9 -11 -4 -17 45 -49 91 -60 37 -8 47 -6 87 17 52 30 129 114 163 177 l24 45 -31 38 c-18 21 -32 43 -32 48 0 5 16 -13 37 -39 l36 -48 -24 -46z m-279 -111 c-8 -5 -26 -9 -40 -9 -23 1 -23 2 5 9 43 11 52 11 35 0z m1460 -99 c0 -5 -8 -15 -17 -22 -10 -7 -15 -9 -11 -5 4 5 3 15 -3 23 -9 10 -7 13 10 13 11 0 21 -4 21 -9z m15 -111 c30 -23 55 -49 55 -57 0 -19 -39 -70 -69 -90 -18 -11 -13 -2 17 30 23 26 42 52 42 59 -1 7 -30 35 -65 62 -36 26 -62 53 -59 58 4 7 10 5 15 -4 5 -8 33 -34 64 -58z m-120 -200 c-3 -5 6 -21 22 -34 15 -13 25 -27 22 -30 -3 -4 -22 9 -42 28 -24 22 -32 36 -24 39 20 9 29 8 22 -3z"/>
 <path d="M1360 2270 c6 -10 9 -23 8 -29 -3 -8 2 -11 17 -11 3 0 -1 14 -10 30 -9 17 -18 30 -21 30 -2 0 0 -9 6 -20z"/>
 <path d="M665 2095 c-53 -17 -34 -18 35 0 30 7 44 13 30 13 -14 0 -43 -5 -65 -13z"/>
 <path d="M3008 2094 c6 -11 18 -28 27 -39 15 -19 15 -18 1 12 -9 17 -21 35 -27 39 -8 4 -8 1 -1 -12z"/>
 <path d="M575 2049 c-20 -18 -40 -41 -46 -53 -6 -11 1 -7 15 11 15 17 39 41 54 52 15 11 24 21 20 21 -4 0 -23 -14 -43 -31z"/>
 <path d="M501 1939 c-6 -18 -11 -37 -10 -43 0 -6 7 7 15 28 8 22 12 41 10 43 -2 2 -9 -10 -15 -28z"/>
 <path d="M440 1774 c-87 -68 -173 -166 -215 -244 -15 -27 10 3 58 71 47 68 134 154 174 172 12 5 24 16 27 23 7 18 8 19 -44 -22z"/>
 <path d="M3092 1483 c-15 -48 -8 -55 8 -8 7 20 10 38 8 41 -3 2 -10 -13 -16 -33z"/>
 <path d="M185 1459 c-9 -17 -15 -33 -13 -35 3 -2 12 12 21 31 21 43 13 47 -8 4z"/>
 <path d="M3048 1383 c-16 -26 -28 -59 -28 -79 0 -18 -9 -56 -19 -84 -14 -36 -16 -52 -8 -57 7 -3 9 -3 6 1 -4 4 2 29 12 57 11 27 19 65 19 84 0 22 10 51 26 75 15 22 25 42 23 44 -2 2 -16 -16 -31 -41z"/>
 <path d="M152 1385 c-17 -37 -14 -45 4 -12 9 16 14 31 11 33 -2 2 -9 -7 -15 -21z"/>
 <path d="M111 1279 c-6 -18 -11 -37 -10 -43 0 -6 7 7 15 28 8 22 12 41 10 43 -2 2 -9 -10 -15 -28z"/>
 <path d="M75 1160 c-4 -17 -5 -34 -2 -36 3 -3 8 9 12 26 4 17 5 34 2 36 -3 3 -8 -9 -12 -26z"/>
 <path d="M2878 1004 c-16 -8 -28 -17 -28 -20 0 -2 12 2 28 9 15 8 34 17 42 20 13 5 13 5 0 6 -8 0 -27 -7 -42 -15z"/>
 <path d="M2735 876 c-55 -57 -89 -96 -75 -86 32 24 190 191 179 190 -2 -1 -49 -47 -104 -104z"/>
 <path d="M33 890 c0 -25 2 -35 4 -22 2 12 2 32 0 45 -2 12 -4 2 -4 -23z"/>
 <path d="M2555 734 c-33 -18 -55 -34 -50 -34 12 0 115 58 115 65 0 7 2 8 -65 -31z"/>
 <path d="M757 721 c-40 -26 -47 -36 -12 -18 42 23 62 37 50 36 -5 0 -22 -8 -38 -18z"/>
 <path d="M32 660 c0 -19 2 -27 5 -17 2 9 2 25 0 35 -3 9 -5 1 -5 -18z"/>
 <path d="M660 665 c-25 -13 -41 -24 -37 -25 11 0 87 39 87 45 0 7 0 7 -50 -20z"/>
 <path d="M1005 650 c11 -5 27 -9 35 -9 9 0 8 4 -5 9 -11 5 -27 9 -35 9 -9 0 -8 -4 5 -9z"/>
 <path d="M2118 643 c12 -2 30 -2 40 0 9 3 -1 5 -23 4 -22 0 -30 -2 -17 -4z"/>
 <path d="M2233 643 c15 -2 37 -2 50 0 12 2 0 4 -28 4 -27 0 -38 -2 -22 -4z"/>
 <path d="M510 605 c-36 -13 -60 -24 -54 -24 13 -1 134 39 134 45 0 7 -12 4 -80 -21z"/>
 <path d="M1166 612 c6 -4 23 -30 37 -58 35 -70 134 -191 205 -251 69 -59 132 -107 132 -100 0 2 -25 23 -55 46 -113 86 -225 213 -276 313 -16 32 -35 58 -42 58 -8 0 -9 -2 -1 -8z"/>
 <path d="M41 604 c-1 -6 4 -25 10 -43 l11 -31 71 2 72 2 -69 5 c-68 6 -69 7 -82 41 -7 19 -13 30 -13 24z"/>
 <path d="M385 570 c-27 -7 -28 -8 -5 -8 14 0 34 3 45 8 25 11 2 11 -40 0z"/>
 <path d="M248 543 c12 -2 30 -2 40 0 9 3 -1 5 -23 4 -22 0 -30 -2 -17 -4z"/>
 <path d="M1901 168 c-7 -24 -21 -58 -32 -75 -10 -18 -15 -33 -10 -33 9 0 45 78 56 123 11 43 -1 31 -14 -15z"/>
 <path d="M1630 145 c0 -7 61 -37 66 -33 2 3 -12 12 -31 21 -19 9 -35 15 -35 12z"/>
 <path d="M1795 70 c11 -5 27 -9 35 -9 9 0 8 4 -5 9 -11 5 -27 9 -35 9 -9 0 -8 -4 5 -9z"/>
 </g>
<g id="layer105" fill="#6f492c" stroke="none">
 <path d="M1929 2723 c-28 -34 -34 -49 -7 -18 24 27 29 29 55 19 58 -23 67 -25 33 -5 -44 25 -63 26 -81 4z"/>
 <path d="M1932 2665 c-76 -86 -139 -286 -149 -471 -5 -104 -4 -114 20 -167 14 -31 40 -77 57 -102 17 -25 27 -45 22 -45 -10 0 -49 54 -76 105 -15 27 -16 28 -11 5 14 -78 61 -193 95 -233 6 -7 20 -23 31 -37 74 -90 123 -132 223 -189 89 -51 157 -85 256 -126 130 -54 249 -118 265 -142 22 -33 11 -42 -18 -15 -22 21 -114 72 -130 72 -4 0 -29 9 -55 21 -26 12 -56 24 -67 29 -54 20 -254 116 -314 150 -53 30 -74 33 -54 8 6 -7 21 -43 33 -80 31 -94 25 -147 -29 -238 l-42 -71 10 -69 c6 -38 11 -133 11 -212 l0 -144 53 -19 c61 -22 238 -26 303 -6 174 54 276 122 416 278 18 20 52 38 105 56 l78 26 -55 1 -55 1 50 16 c28 8 54 19 60 24 18 17 28 9 11 -10 -15 -17 -15 -19 0 -32 16 -13 14 -15 -12 -20 l-29 -7 33 -1 c36 -1 39 5 16 30 -14 16 -14 18 7 29 17 10 19 14 8 21 -11 6 -11 11 -1 21 23 23 12 27 -35 13 -27 -8 -51 -15 -55 -15 -18 0 -6 16 22 32 27 16 86 115 75 126 -2 2 -24 -10 -49 -27 -38 -27 -66 -38 -66 -28 0 1 9 20 20 42 11 22 20 59 20 84 l0 45 -30 -29 c-40 -39 -38 -20 4 30 l34 40 7 -38 c4 -21 5 -56 2 -77 -6 -48 4 -40 55 41 71 113 88 177 88 329 0 128 -12 182 -60 284 -52 110 -166 246 -292 350 -13 10 -31 26 -41 35 -18 15 -18 14 -12 -22 8 -41 -1 -47 -38 -22 l-23 14 4 -69 c3 -56 0 -78 -18 -115 -12 -25 -28 -45 -35 -45 -20 0 -65 22 -65 31 0 4 14 1 30 -8 24 -11 34 -12 45 -3 40 33 45 170 9 226 -20 30 -16 29 38 -8 33 -23 38 -23 38 3 0 12 -16 37 -35 55 -56 52 -301 168 -453 213 -73 22 -153 51 -177 65 l-43 26 -30 -35z m537 -489 c14 -15 18 -26 12 -30 -6 -4 -17 7 -26 24 -19 36 -16 38 14 6z m41 -103 c0 -30 -20 -38 -67 -25 l-38 11 48 -4 c53 -3 54 -1 32 60 -7 20 -6 20 9 1 9 -11 16 -30 16 -43z m-120 -7 c19 -8 -33 2 -55 10 -10 4 7 -28 39 -76 31 -45 56 -88 56 -95 0 -18 -35 -25 -120 -23 -62 1 -66 2 -20 5 91 5 120 12 120 30 0 9 -27 53 -60 99 -33 45 -60 85 -60 88 0 3 19 -3 43 -13 23 -10 49 -21 57 -25z m-426 -82 c9 -20 14 -39 11 -42 -3 -3 -5 -1 -5 5 0 5 -9 20 -20 33 -21 24 -26 40 -12 40 5 0 16 -16 26 -36z m181 -66 c31 -11 41 -17 27 -18 -13 0 -41 9 -64 20 -22 11 -44 18 -48 15 -4 -2 -12 7 -19 21 l-11 26 32 -24 c18 -12 55 -30 83 -40z m-75 -18 c0 -14 -6 -20 -22 -19 -17 1 -19 2 -5 6 9 2 17 11 17 19 0 8 2 14 5 14 3 0 5 -9 5 -20z m-148 -47 c17 -15 20 -15 28 -3 8 13 10 12 10 -2 0 -10 -6 -18 -12 -18 -15 0 -68 39 -54 40 5 0 18 -8 28 -17z"/>
 <path d="M2140 2662 c8 -5 26 -13 40 -16 17 -5 20 -4 10 2 -8 5 -26 13 -40 16 -17 5 -20 4 -10 -2z"/>
 <path d="M2390 2565 c14 -8 30 -14 35 -14 6 0 -1 6 -15 14 -14 8 -29 14 -35 14 -5 0 1 -6 15 -14z"/>
 <path d="M2461 2536 c10 -9 129 -66 129 -61 0 5 -116 65 -126 65 -4 0 -5 -2 -3 -4z"/>
 <path d="M1378 2513 c18 -2 45 -2 60 0 15 2 0 4 -33 4 -33 0 -45 -2 -27 -4z"/>
 <path d="M1299 2481 c-45 -45 -35 -105 26 -161 23 -20 21 -16 -9 23 -46 62 -47 98 -5 138 17 16 28 29 24 29 -3 0 -20 -13 -36 -29z"/>
 <path d="M1481 2503 c9 -2 71 -64 139 -138 67 -74 124 -135 126 -135 2 0 4 15 3 33 -1 27 -2 28 -7 9 -6 -20 -16 -12 -97 79 -124 139 -145 159 -164 158 -14 -1 -14 -2 0 -6z"/>
 <path d="M1340 2485 c-7 -9 -10 -27 -6 -45 7 -37 -1 -39 -14 -4 -12 31 -30 22 -30 -15 0 -19 14 -44 40 -74 37 -42 54 -77 29 -61 -8 4 -8 1 0 -14 6 -12 10 -25 9 -31 -2 -5 2 -8 7 -8 6 1 9 4 8 7 -1 3 -5 14 -9 25 -17 47 12 -1 41 -68 l32 -72 59 -15 c115 -29 155 -60 224 -173 19 -31 38 -57 41 -57 3 0 0 22 -7 49 -7 27 -15 89 -19 138 -8 112 -25 147 -131 274 -46 56 -87 107 -92 114 -8 13 -65 45 -82 45 -5 0 -10 -19 -10 -42 0 -32 -3 -39 -10 -28 -5 8 -10 27 -10 43 0 23 -4 27 -29 27 -16 0 -34 -7 -41 -15z"/>
 <path d="M2655 2434 c6 -6 42 -34 82 -63 40 -29 116 -98 170 -154 53 -56 82 -82 63 -57 -47 61 -134 147 -206 202 -60 45 -127 90 -109 72z"/>
 <path d="M1078 2393 c-42 -43 -88 -136 -87 -173 1 -19 3 -16 10 13 10 44 54 133 70 143 13 8 13 7 -25 -70 -30 -59 -48 -168 -30 -179 5 -3 38 -7 74 -9 59 -3 65 -1 65 17 0 16 6 20 28 18 20 -1 27 3 27 16 0 10 12 44 26 74 20 45 23 60 14 77 -13 24 -23 25 -40 5 -7 -9 -15 -13 -18 -10 -3 3 3 14 13 25 18 20 18 22 1 38 -16 16 -18 16 -48 -1 -39 -22 -47 -16 -13 11 22 17 31 19 50 10 14 -6 27 -19 30 -30 4 -10 10 -18 15 -18 5 0 14 -9 21 -21 8 -17 7 -31 -6 -66 -9 -24 -15 -47 -12 -50 4 -3 0 -12 -8 -20 -8 -8 -15 -24 -15 -35 0 -16 -5 -19 -24 -14 -28 7 -39 -3 -26 -24 7 -11 37 -17 102 -21 51 -4 -20 -4 -158 -2 -365 7 -473 -10 -538 -88 -52 -61 -59 -92 -64 -271 l-4 -167 -63 -36 c-122 -72 -257 -227 -313 -360 -32 -78 -59 -199 -72 -328 -13 -119 -10 -179 10 -249 11 -37 12 -38 58 -38 36 0 69 11 141 47 l94 46 -39 15 c-44 17 -104 58 -104 72 0 5 17 12 38 15 20 4 46 9 57 12 11 3 17 2 13 -2 -4 -5 -24 -11 -44 -14 -20 -3 -37 -10 -37 -16 0 -16 48 -46 92 -56 37 -8 47 -6 87 17 52 30 129 114 163 177 l24 44 -31 39 c-17 22 -43 65 -57 97 -25 57 -81 137 -95 137 -4 0 -13 -21 -20 -46 l-13 -46 -12 28 -13 29 -10 -25 -11 -25 0 25 c-1 15 4 31 11 38 10 10 15 7 24 -10 11 -21 13 -20 23 20 7 23 16 42 21 42 6 0 10 -3 10 -7 1 -5 10 -19 21 -32 16 -20 22 -22 29 -11 6 9 11 2 16 -26 8 -48 55 -146 89 -186 30 -35 30 -39 9 -81 -57 -110 -194 -229 -333 -288 -74 -32 -58 -37 47 -14 182 38 340 109 415 188 21 22 42 36 45 31 8 -11 96 -54 177 -86 67 -27 127 -44 208 -58 l68 -12 26 -57 c46 -98 205 -289 270 -325 10 -5 33 -22 51 -37 18 -16 47 -36 65 -45 l32 -17 -25 29 c-14 16 -27 31 -30 34 -24 22 -103 136 -129 186 -34 65 -76 216 -67 240 3 8 12 14 21 14 34 0 216 102 236 133 4 5 12 7 18 3 10 -7 7 -47 -9 -98 -6 -18 -5 -28 3 -32 7 -2 4 -5 -7 -5 -13 -1 -16 3 -11 16 10 26 19 93 11 93 -3 0 -38 -21 -77 -46 -39 -25 -92 -55 -116 -67 l-45 -22 6 -58 c6 -64 47 -176 80 -220 27 -37 64 -56 123 -63 l48 -5 -33 29 c-28 25 -31 30 -16 36 9 4 19 4 22 1 3 -3 1 -5 -3 -5 -5 0 7 -16 26 -36 l34 -35 -59 2 c-38 2 -61 -1 -64 -9 -5 -15 125 -144 163 -161 17 -7 38 -18 48 -23 11 -5 21 -7 24 -4 14 14 56 184 80 321 24 138 25 157 15 242 -13 103 -26 160 -54 246 -11 32 -17 61 -15 64 15 14 77 -176 77 -235 0 -15 4 -33 9 -40 23 -37 20 245 -4 354 -13 57 -14 58 -42 30 -14 -14 -30 -26 -34 -26 -12 0 -11 17 1 25 18 11 133 167 152 206 24 50 23 95 -3 166 -20 54 -107 198 -140 233 -44 47 -116 150 -147 210 -7 15 -36 56 -63 92 -59 80 -119 113 -224 127 -38 4 -60 9 -47 10 26 1 27 8 7 58 -17 43 -60 70 -82 51 -11 -8 -12 -7 -7 6 3 9 14 16 23 17 12 0 13 2 2 6 -8 3 -22 -5 -32 -18 -20 -26 -25 -44 -9 -34 6 3 7 -1 4 -10 -7 -17 -30 -14 -27 4 2 6 0 11 -5 11 -4 0 -13 4 -21 9 -11 7 -11 16 4 55 l18 46 -28 40 c-30 44 -84 80 -119 80 -12 0 -38 -16 -58 -37z m61 24 c-2 -2 -17 -11 -34 -21 l-30 -17 24 20 c13 12 28 21 34 21 6 0 8 -1 6 -3z m445 -433 c3 -9 6 -27 6 -40 0 -20 -5 -24 -27 -24 -16 0 -41 11 -58 24 -25 20 -28 26 -16 40 18 21 87 22 95 0z m-414 -169 c-20 -24 -129 -71 -198 -85 -64 -13 -199 -7 -215 9 -5 5 -4 18 2 30 10 17 17 20 39 14 15 -5 77 -8 137 -7 94 1 120 4 175 27 79 31 75 30 60 12z m465 -237 c31 -98 73 -158 157 -230 21 -18 26 -29 21 -50 -3 -16 -9 -28 -13 -28 -21 0 -100 86 -128 137 -39 74 -78 223 -58 223 2 0 11 -24 21 -52z m-1278 -534 c-2 -2 -22 0 -43 6 l-39 10 38 -5 c32 -3 37 -1 38 18 2 21 2 21 6 -1 3 -13 3 -26 0 -28z m-87 22 c0 -2 -16 -6 -35 -8 -19 -2 -35 0 -35 4 0 4 16 8 35 8 19 0 35 -2 35 -4z m-63 -73 c-3 -10 -5 -2 -5 17 0 19 2 27 5 18 2 -10 2 -26 0 -35z m73 -168 c0 -5 -11 8 -25 30 -13 22 -24 45 -25 50 0 6 11 -8 25 -30 13 -22 24 -44 25 -50z m1480 -187 l-34 -31 28 -21 c16 -12 47 -37 69 -57 l41 -37 -28 -36 c-31 -41 -125 -108 -139 -99 -5 3 8 13 30 23 40 18 113 91 113 113 -1 6 -30 34 -67 62 l-65 49 26 21 c20 16 23 24 14 33 -9 9 -6 12 18 12 l29 -1 -35 -31z"/>
 <path d="M990 2140 c0 -18 -8 -20 -107 -23 l-108 -3 113 -2 112 -2 0 25 c0 14 -2 25 -5 25 -3 0 -5 -9 -5 -20z"/>
 <path d="M665 2095 c-53 -17 -34 -18 35 0 30 7 44 13 30 13 -14 0 -43 -5 -65 -13z"/>
 <path d="M3008 2094 c6 -11 18 -28 27 -39 15 -19 15 -18 1 12 -9 17 -21 35 -27 39 -8 4 -8 1 -1 -12z"/>
 <path d="M575 2049 c-20 -18 -40 -41 -46 -53 -6 -11 1 -7 15 11 15 17 39 41 54 52 15 11 24 21 20 21 -4 0 -23 -14 -43 -31z"/>
 <path d="M501 1939 c-6 -18 -11 -37 -10 -43 0 -6 7 7 15 28 8 22 12 41 10 43 -2 2 -9 -10 -15 -28z"/>
 <path d="M440 1774 c-87 -68 -173 -166 -215 -244 -15 -27 10 3 58 71 47 68 134 154 174 172 12 5 24 16 27 23 7 18 8 19 -44 -22z"/>
 <path d="M440 1712 c-43 -21 -99 -77 -156 -158 -47 -66 -148 -269 -158 -319 -6 -28 -5 -28 18 10 84 136 230 294 274 295 6 0 12 4 12 9 0 5 14 12 30 16 l30 7 0 79 c0 43 -3 79 -7 79 -5 0 -24 -8 -43 -18z"/>
 <path d="M3092 1483 c-15 -48 -8 -55 8 -8 7 20 10 38 8 41 -3 2 -10 -13 -16 -33z"/>
 <path d="M185 1459 c-9 -17 -15 -33 -13 -35 3 -2 12 12 21 31 21 43 13 47 -8 4z"/>
 <path d="M3048 1383 c-16 -26 -28 -59 -28 -79 0 -18 -9 -56 -19 -84 -14 -36 -16 -52 -8 -57 7 -3 9 -3 6 1 -4 4 2 29 12 57 11 27 19 65 19 84 0 22 10 51 26 75 15 22 25 42 23 44 -2 2 -16 -16 -31 -41z"/>
 <path d="M152 1385 c-17 -37 -14 -45 4 -12 9 16 14 31 11 33 -2 2 -9 -7 -15 -21z"/>
 <path d="M111 1279 c-6 -18 -11 -37 -10 -43 0 -6 7 7 15 28 8 22 12 41 10 43 -2 2 -9 -10 -15 -28z"/>
 <path d="M75 1160 c-4 -17 -5 -34 -2 -36 3 -3 8 9 12 26 4 17 5 34 2 36 -3 3 -8 -9 -12 -26z"/>
 <path d="M3019 1171 c12 -8 13 -15 3 -38 -11 -26 -11 -27 3 -9 20 27 19 56 -2 56 -15 0 -15 -2 -4 -9z"/>
 <path d="M2878 1004 c-16 -8 -28 -17 -28 -20 0 -2 12 2 28 9 15 8 34 17 42 20 13 5 13 5 0 6 -8 0 -27 -7 -42 -15z"/>
 <path d="M2735 876 c-55 -57 -89 -96 -75 -86 32 24 190 191 179 190 -2 -1 -49 -47 -104 -104z"/>
 <path d="M33 890 c0 -25 2 -35 4 -22 2 12 2 32 0 45 -2 12 -4 2 -4 -23z"/>
 <path d="M2555 734 c-33 -18 -55 -34 -50 -34 12 0 115 58 115 65 0 7 2 8 -65 -31z"/>
 <path d="M757 721 c-40 -26 -47 -36 -12 -18 42 23 62 37 50 36 -5 0 -22 -8 -38 -18z"/>
 <path d="M32 660 c0 -19 2 -27 5 -17 2 9 2 25 0 35 -3 9 -5 1 -5 -18z"/>
 <path d="M660 665 c-25 -13 -41 -24 -37 -25 11 0 87 39 87 45 0 7 0 7 -50 -20z"/>
 <path d="M1005 650 c11 -5 27 -9 35 -9 9 0 8 4 -5 9 -11 5 -27 9 -35 9 -9 0 -8 -4 5 -9z"/>
 <path d="M2118 643 c12 -2 30 -2 40 0 9 3 -1 5 -23 4 -22 0 -30 -2 -17 -4z"/>
 <path d="M2233 643 c15 -2 37 -2 50 0 12 2 0 4 -28 4 -27 0 -38 -2 -22 -4z"/>
 <path d="M510 605 c-36 -13 -60 -24 -54 -24 13 -1 134 39 134 45 0 7 -12 4 -80 -21z"/>
 <path d="M1166 612 c6 -4 23 -30 37 -58 35 -70 134 -191 205 -251 69 -59 132 -107 132 -100 0 2 -25 23 -55 46 -113 86 -225 213 -276 313 -16 32 -35 58 -42 58 -8 0 -9 -2 -1 -8z"/>
 <path d="M41 604 c-1 -6 4 -25 10 -43 l11 -31 71 2 72 2 -69 5 c-68 6 -69 7 -82 41 -7 19 -13 30 -13 24z"/>
 <path d="M385 570 c-27 -7 -28 -8 -5 -8 14 0 34 3 45 8 25 11 2 11 -40 0z"/>
 <path d="M248 543 c12 -2 30 -2 40 0 9 3 -1 5 -23 4 -22 0 -30 -2 -17 -4z"/>
 <path d="M1901 168 c-7 -24 -21 -58 -32 -75 -10 -18 -15 -33 -10 -33 9 0 45 78 56 123 11 43 -1 31 -14 -15z"/>
 <path d="M1630 145 c0 -7 61 -37 66 -33 2 3 -12 12 -31 21 -19 9 -35 15 -35 12z"/>
 <path d="M1795 70 c11 -5 27 -9 35 -9 9 0 8 4 -5 9 -11 5 -27 9 -35 9 -9 0 -8 -4 5 -9z"/>
 </g>
<g id="layer106" fill="#645f5c" stroke="none">
 <path d="M1929 2723 c-28 -34 -34 -49 -7 -18 24 27 29 29 55 19 58 -23 67 -25 33 -5 -44 25 -63 26 -81 4z"/>
 <path d="M1932 2665 c-77 -86 -139 -286 -149 -473 l-6 -112 36 -73 c39 -79 100 -157 123 -157 12 0 14 12 10 63 -4 52 -4 56 4 22 14 -64 12 -105 -5 -105 -21 0 -99 80 -124 126 -27 51 -27 21 0 -58 39 -117 150 -254 269 -333 65 -43 306 -163 360 -180 56 -17 200 -98 215 -122 22 -32 11 -42 -18 -16 -27 26 -63 43 -162 83 -118 47 -305 134 -386 180 -69 39 -93 45 -72 18 22 -28 53 -132 53 -179 0 -50 -18 -96 -67 -171 -24 -35 -24 -40 -14 -107 6 -38 11 -134 11 -213 l0 -144 33 -11 c72 -26 162 -35 243 -24 185 26 329 104 454 247 56 63 69 72 150 100 l65 23 -50 1 -50 2 52 16 c28 10 55 20 59 25 16 16 26 6 10 -12 -15 -17 -15 -19 0 -32 16 -13 14 -15 -12 -20 l-29 -7 33 -1 c36 -1 39 5 16 30 -14 16 -14 18 7 29 17 10 19 14 8 21 -11 6 -11 11 -1 21 22 22 12 26 -35 12 -25 -8 -50 -14 -55 -14 -17 0 -7 16 21 32 30 16 71 83 71 113 0 12 -10 9 -44 -15 -62 -42 -80 -41 -51 4 17 26 33 126 20 126 -5 0 -19 -10 -32 -22 -35 -32 -27 -9 11 37 l34 40 7 -37 c4 -21 5 -53 3 -72 -3 -30 -2 -33 11 -23 30 25 82 118 107 194 24 72 26 88 22 213 -4 123 -7 142 -36 213 -37 91 -82 164 -145 235 -52 59 -208 202 -219 202 -4 0 -5 -13 -1 -30 6 -34 -9 -40 -43 -16 -19 14 -19 12 -16 -55 3 -55 0 -77 -18 -114 -25 -51 -39 -55 -89 -24 -31 19 -33 19 -26 2 5 -10 9 -31 9 -48 1 -29 0 -30 -44 -28 -25 1 -65 9 -88 17 -23 8 -42 13 -42 9 0 -3 23 -39 50 -80 28 -41 50 -81 50 -88 0 -42 -248 -28 -339 19 l-31 16 6 -30 c6 -25 3 -30 -14 -30 -18 0 -82 55 -82 70 0 4 -9 17 -20 30 -21 24 -26 40 -12 40 5 0 15 -15 24 -33 21 -44 67 -97 84 -97 18 0 18 12 0 54 l-14 34 46 -29 c92 -56 332 -81 332 -35 0 7 -27 51 -60 99 -33 47 -60 88 -60 91 0 3 17 -2 38 -11 52 -22 141 -43 158 -36 17 6 12 26 -24 98 l-24 49 36 -32 c20 -17 50 -39 67 -48 29 -14 32 -14 45 3 39 52 43 164 7 219 -19 30 -15 29 39 -8 33 -23 38 -23 38 3 0 12 -16 37 -35 55 -56 52 -301 168 -453 213 -73 22 -153 51 -177 65 l-43 26 -30 -35z"/>
 <path d="M2140 2662 c8 -5 26 -13 40 -16 17 -5 20 -4 10 2 -8 5 -26 13 -40 16 -17 5 -20 4 -10 -2z"/>
 <path d="M2390 2565 c14 -8 30 -14 35 -14 6 0 -1 6 -15 14 -14 8 -29 14 -35 14 -5 0 1 -6 15 -14z"/>
 <path d="M2461 2536 c10 -9 129 -66 129 -61 0 5 -116 65 -126 65 -4 0 -5 -2 -3 -4z"/>
 <path d="M1378 2513 c18 -2 45 -2 60 0 15 2 0 4 -33 4 -33 0 -45 -2 -27 -4z"/>
 <path d="M1303 2484 l-28 -25 33 22 c17 13 32 24 32 26 0 8 -11 1 -37 -23z"/>
 <path d="M1347 2489 c-15 -9 -17 -18 -12 -45 7 -40 -1 -45 -15 -8 -12 31 -30 22 -30 -15 0 -19 14 -44 41 -74 22 -26 57 -86 78 -134 37 -84 40 -88 77 -97 117 -25 171 -62 235 -162 23 -35 44 -63 46 -61 2 2 -1 26 -7 53 -5 27 -14 91 -19 142 -10 105 -17 120 -137 263 -40 48 -76 94 -81 102 -11 19 -47 37 -72 37 -17 0 -21 -6 -21 -37 0 -42 -9 -38 -19 9 -7 36 -32 46 -64 27z"/>
 <path d="M1540 2460 c12 -16 24 -30 26 -30 3 0 -4 14 -16 30 -12 17 -24 30 -26 30 -3 0 4 -13 16 -30z"/>
 <path d="M1271 2427 c-1 -35 19 -75 55 -107 26 -23 25 -21 -4 13 -17 20 -34 47 -36 60 -3 12 -7 31 -9 42 -3 14 -5 12 -6 -8z"/>
 <path d="M2650 2438 c3 -3 41 -33 85 -65 70 -52 152 -130 240 -228 18 -20 16 -15 -6 15 -44 59 -132 145 -205 202 -57 43 -124 88 -114 76z"/>
 <path d="M1078 2393 c-20 -21 -41 -48 -47 -60 -19 -37 -5 -26 18 13 35 59 34 33 -1 -35 -32 -62 -51 -172 -32 -184 5 -3 38 -7 74 -9 59 -3 65 -1 65 17 0 14 7 20 21 19 30 -1 90 136 74 166 -13 24 -23 25 -40 5 -7 -9 -15 -13 -18 -10 -3 3 3 14 13 25 14 16 15 22 5 35 -25 30 4 14 32 -17 l29 -33 -26 37 c-14 20 -34 39 -43 43 -9 3 -13 3 -10 -1 4 -3 -9 -15 -30 -25 -47 -25 -50 -24 -22 6 22 23 22 25 4 25 -11 0 -31 -8 -44 -17 -24 -16 -24 -16 -10 1 8 10 23 22 35 26 13 6 15 9 5 9 -9 1 -32 -16 -52 -36z"/>
 <path d="M1656 2328 c48 -54 89 -98 91 -98 1 0 2 15 2 33 -1 25 -3 27 -6 8 -4 -21 -13 -15 -90 65 l-85 89 88 -97z"/>
 <path d="M1001 2269 c-6 -18 -11 -39 -10 -48 0 -9 7 4 14 29 16 51 13 67 -4 19z"/>
 <path d="M1243 2235 c-3 -9 -3 -18 0 -22 3 -3 0 -12 -8 -20 -8 -8 -15 -24 -15 -35 0 -16 -5 -19 -25 -16 -19 4 -25 1 -25 -13 0 -13 10 -20 36 -25 39 -7 212 1 222 10 2 3 -3 25 -12 48 -18 48 -59 76 -83 56 -11 -8 -12 -7 -7 6 7 19 25 21 42 4 9 -9 12 -9 12 3 0 25 -46 21 -64 -6 -18 -28 -21 -39 -6 -30 6 3 7 -1 4 -9 -8 -20 -15 -20 -40 -1 -19 15 -19 15 1 10 15 -4 15 -3 -3 7 -15 7 -22 18 -19 30 6 22 -1 24 -10 3z"/>
 <path d="M990 2130 c0 -5 -47 -11 -107 -13 l-108 -3 113 -2 c94 -2 112 0 112 13 0 8 -2 15 -5 15 -3 0 -5 -4 -5 -10z"/>
 <path d="M3008 2094 c6 -11 18 -28 27 -39 15 -19 15 -18 1 12 -9 17 -21 35 -27 39 -8 4 -8 1 -1 -12z"/>
 <path d="M800 2089 c-121 -7 -181 -28 -223 -79 -53 -63 -60 -92 -65 -272 l-4 -167 -63 -36 c-72 -42 -166 -130 -224 -208 -105 -142 -150 -293 -158 -527 -4 -103 -1 -169 6 -197 11 -41 13 -43 51 -43 46 0 119 26 187 66 l47 27 -49 23 c-50 25 -85 51 -85 65 0 5 18 12 40 15 22 4 42 10 44 13 3 4 -13 33 -35 64 -43 65 -69 140 -69 200 l0 40 58 -6 c31 -3 65 -8 75 -12 15 -6 17 -1 17 47 0 64 18 91 36 56 12 -22 12 -21 19 15 4 20 12 40 17 43 8 5 17 -3 51 -50 5 -8 10 -7 16 2 6 10 12 -1 20 -35 15 -58 53 -135 86 -175 32 -38 32 -49 -9 -112 -67 -105 -187 -203 -315 -257 -79 -34 -54 -38 64 -10 176 43 325 111 396 182 l39 39 53 -29 c112 -64 191 -90 385 -127 15 -3 29 -17 39 -42 58 -139 258 -354 393 -422 23 -12 23 -10 -6 21 -93 101 -164 227 -194 343 -25 98 -25 107 0 113 42 11 157 71 203 107 26 20 52 34 57 31 10 -6 5 -49 -10 -97 -9 -27 -8 -27 47 -30 l56 -3 -32 -31 -31 -30 54 -40 c79 -57 84 -68 49 -113 -35 -43 -120 -101 -147 -101 -17 0 -15 -5 15 -36 l34 -35 -60 2 c-70 2 -72 -3 -18 -70 61 -74 170 -138 194 -114 15 15 66 229 84 357 11 76 14 140 10 175 -8 66 -40 209 -60 269 -19 54 -19 73 1 47 19 -25 50 -125 66 -213 l12 -67 8 85 c8 87 -3 233 -23 303 l-10 38 -26 -25 c-24 -24 -43 -33 -43 -20 0 3 25 37 57 76 31 39 72 96 90 127 31 51 34 61 29 111 -7 73 -67 193 -150 296 -82 104 -129 171 -154 220 -44 85 -111 162 -165 188 -51 24 -57 24 -362 28 -170 2 -357 1 -415 -3z m774 -95 c9 -8 16 -29 16 -45 0 -25 -4 -29 -29 -29 -18 0 -41 10 -58 25 l-28 25 24 20 c28 24 54 26 75 4z m-414 -186 c-74 -62 -225 -99 -340 -82 -67 10 -78 19 -57 47 11 16 18 17 67 6 76 -16 191 -6 275 24 87 31 85 31 55 5z m483 -249 c34 -90 67 -139 127 -190 40 -33 50 -48 48 -68 -5 -38 -23 -36 -71 8 -68 63 -137 214 -137 302 0 31 5 24 33 -52z"/>
 <path d="M575 2049 c-20 -18 -40 -41 -46 -53 -6 -11 1 -7 15 11 15 17 39 41 54 52 15 11 24 21 20 21 -4 0 -23 -14 -43 -31z"/>
 <path d="M440 1773 c-81 -61 -174 -167 -215 -243 -15 -27 10 3 58 71 47 68 134 154 175 172 12 6 22 14 22 19 0 11 -1 11 -40 -19z"/>
 <path d="M445 1713 c-43 -22 -110 -89 -161 -159 -62 -87 -174 -328 -159 -343 3 -2 5 0 5 5 0 14 85 140 134 197 46 55 143 131 193 152 l33 14 0 75 c0 42 -3 76 -7 76 -5 -1 -21 -8 -38 -17z"/>
 <path d="M3092 1483 c-15 -48 -8 -55 8 -8 7 20 10 38 8 41 -3 2 -10 -13 -16 -33z"/>
 <path d="M185 1459 c-9 -17 -15 -33 -13 -35 3 -2 12 12 21 31 21 43 13 47 -8 4z"/>
 <path d="M3047 1383 c-22 -36 -27 -55 -24 -87 l4 -41 1 43 c1 27 12 57 28 82 15 22 25 42 23 44 -2 2 -17 -17 -32 -41z"/>
 <path d="M152 1385 c-17 -37 -14 -45 4 -12 9 16 14 31 11 33 -2 2 -9 -7 -15 -21z"/>
 <path d="M111 1279 c-6 -18 -11 -37 -10 -43 0 -6 7 7 15 28 8 22 12 41 10 43 -2 2 -9 -10 -15 -28z"/>
 <path d="M75 1160 c-4 -17 -5 -34 -2 -36 3 -3 8 9 12 26 4 17 5 34 2 36 -3 3 -8 -9 -12 -26z"/>
 <path d="M414 1150 c-8 -47 -20 -59 -29 -30 -12 37 -25 21 -25 -31 l0 -51 -32 6 c-18 4 -52 9 -75 13 l-43 6 0 -36 c0 -49 32 -130 79 -202 22 -33 37 -63 35 -67 -3 -5 -20 -8 -39 -8 -19 0 -36 -4 -40 -9 -8 -14 44 -47 93 -61 49 -13 58 -9 141 58 37 30 131 157 131 177 0 3 -13 23 -30 43 -16 20 -41 64 -56 97 -28 60 -80 135 -96 135 -4 0 -11 -18 -14 -40z"/>
 <path d="M3016 1172 c6 -4 14 -14 17 -22 4 -10 6 -8 6 8 1 15 -5 22 -16 22 -11 0 -14 -3 -7 -8z"/>
 <path d="M2878 1004 c-16 -8 -28 -17 -28 -20 0 -2 12 2 28 9 15 8 34 17 42 20 13 5 13 5 0 6 -8 0 -27 -7 -42 -15z"/>
 <path d="M2735 876 c-55 -57 -89 -96 -75 -86 32 24 190 191 179 190 -2 -1 -49 -47 -104 -104z"/>
 <path d="M33 890 c0 -25 2 -35 4 -22 2 12 2 32 0 45 -2 12 -4 2 -4 -23z"/>
 <path d="M1613 726 c-34 -23 -85 -53 -114 -66 l-51 -25 6 -56 c7 -68 35 -148 75 -211 25 -40 38 -49 82 -62 29 -9 62 -16 73 -16 18 1 16 5 -13 30 -24 21 -30 31 -20 34 8 2 32 10 53 17 39 11 136 97 136 118 0 6 -30 34 -66 63 l-67 52 29 23 c16 13 27 23 24 24 -3 0 -22 2 -43 4 -48 4 -50 6 -37 39 12 32 13 76 3 75 -5 0 -36 -19 -70 -43z"/>
 <path d="M2555 734 c-33 -18 -55 -34 -50 -34 12 0 115 58 115 65 0 7 2 8 -65 -31z"/>
 <path d="M757 721 c-40 -26 -47 -36 -12 -18 42 23 62 37 50 36 -5 0 -22 -8 -38 -18z"/>
 <path d="M660 665 c-25 -13 -41 -24 -37 -25 11 0 87 39 87 45 0 7 0 7 -50 -20z"/>
 <path d="M1005 650 c11 -5 27 -9 35 -9 9 0 8 4 -5 9 -11 5 -27 9 -35 9 -9 0 -8 -4 5 -9z"/>
 <path d="M2118 643 c12 -2 30 -2 40 0 9 3 -1 5 -23 4 -22 0 -30 -2 -17 -4z"/>
 <path d="M2233 643 c15 -2 37 -2 50 0 12 2 0 4 -28 4 -27 0 -38 -2 -22 -4z"/>
 <path d="M545 615 c-25 -12 -26 -14 -5 -9 28 7 60 23 45 23 -5 0 -23 -6 -40 -14z"/>
 <path d="M1166 612 c6 -4 23 -30 37 -58 53 -104 182 -245 302 -328 l40 -28 -34 29 c-113 93 -142 120 -198 186 -35 39 -79 102 -98 140 -20 37 -41 67 -48 67 -9 0 -9 -2 -1 -8z"/>
 <path d="M41 604 c-1 -6 4 -25 10 -43 l11 -31 71 2 72 2 -69 5 c-68 6 -69 7 -82 41 -7 19 -13 30 -13 24z"/>
 <path d="M465 590 c-13 -5 -14 -9 -5 -9 8 0 24 4 35 9 13 5 14 9 5 9 -8 0 -24 -4 -35 -9z"/>
 <path d="M390 570 c-20 -6 -21 -8 -5 -8 11 0 29 3 40 8 25 11 -1 11 -35 0z"/>
 <path d="M248 543 c12 -2 30 -2 40 0 9 3 -1 5 -23 4 -22 0 -30 -2 -17 -4z"/>
 <path d="M1897 158 c-9 -29 -15 -54 -13 -56 2 -2 12 20 21 48 9 28 15 53 13 55 -2 3 -12 -19 -21 -47z"/>
 <path d="M1630 145 c0 -7 61 -37 66 -33 2 3 -12 12 -31 21 -19 9 -35 15 -35 12z"/>
 </g>
<g id="layer107" fill="#c3531e" stroke="none">
 <path d="M1935 2668 c-63 -75 -124 -241 -145 -395 -18 -131 -10 -207 30 -281 60 -112 141 -186 127 -114 -14 71 -19 152 -9 152 6 0 15 -15 21 -33 18 -53 101 -134 101 -98 0 5 -7 25 -15 45 -18 42 -13 45 26 11 34 -28 75 -41 174 -56 80 -11 165 -4 165 15 0 7 -29 54 -65 104 -36 50 -65 93 -65 96 0 3 26 -7 58 -21 31 -15 81 -29 111 -31 52 -5 53 -4 46 19 -4 13 -18 43 -31 66 -31 54 -30 63 4 31 15 -13 43 -34 63 -46 35 -21 37 -21 53 -3 39 43 46 133 16 199 l-19 42 44 -26 c43 -25 45 -25 45 -6 0 31 -48 72 -151 129 -113 62 -210 102 -366 149 -63 19 -132 46 -153 59 l-39 24 -26 -31z"/>
 <path d="M1378 2513 c18 -2 45 -2 60 0 15 2 0 4 -33 4 -33 0 -45 -2 -27 -4z"/>
 <path d="M1347 2489 c-15 -9 -17 -18 -12 -45 7 -40 -1 -45 -15 -8 -12 31 -30 22 -30 -15 0 -19 14 -44 41 -74 22 -26 57 -86 78 -134 37 -84 40 -88 77 -97 117 -25 171 -62 235 -162 23 -35 44 -63 46 -61 2 2 -1 26 -7 53 -5 27 -14 91 -19 142 -10 105 -17 120 -137 263 -40 48 -76 94 -81 102 -11 19 -47 37 -72 37 -17 0 -21 -6 -21 -37 0 -42 -9 -38 -19 9 -7 36 -32 46 -64 27z"/>
 <path d="M1540 2460 c12 -16 24 -30 26 -30 3 0 -4 14 -16 30 -12 17 -24 30 -26 30 -3 0 4 -13 16 -30z"/>
 <path d="M1100 2415 c-7 -8 -10 -15 -6 -15 3 0 -8 -22 -24 -48 -16 -27 -37 -68 -45 -92 -16 -45 -20 -126 -7 -133 4 -3 36 -7 72 -9 59 -3 65 -1 65 17 0 14 7 20 21 19 30 -1 90 136 74 166 -13 24 -23 25 -40 5 -7 -9 -15 -13 -18 -10 -3 3 3 14 13 25 17 19 17 22 2 37 -14 15 -20 15 -44 3 -47 -24 -49 -24 -23 5 l25 28 -32 -6 c-38 -7 -43 -1 -10 13 15 6 17 9 6 9 -9 1 -22 -6 -29 -14z"/>
 <path d="M1625 2360 c33 -33 62 -60 64 -60 3 0 -21 27 -54 60 -33 33 -62 60 -64 60 -3 0 21 -27 54 -60z"/>
 <path d="M1230 2370 c11 -16 26 -33 32 -36 7 -4 -1 9 -16 29 -34 44 -46 50 -16 7z"/>
 <path d="M2687 2330 c6 -34 -9 -40 -43 -16 -19 14 -19 12 -16 -55 3 -55 0 -77 -18 -114 -25 -51 -39 -55 -89 -24 -31 19 -33 19 -26 2 5 -10 9 -31 9 -48 1 -29 0 -30 -44 -28 -25 1 -65 9 -88 17 -23 8 -42 13 -42 9 0 -3 23 -39 50 -80 28 -41 50 -81 50 -88 0 -42 -248 -28 -339 19 l-31 16 6 -30 c6 -26 3 -30 -14 -30 -19 0 -50 27 -87 75 -14 18 -15 14 -9 -52 6 -64 5 -73 -10 -73 -22 0 -99 78 -125 126 -27 51 -27 21 0 -58 39 -117 150 -254 269 -333 65 -43 306 -163 360 -180 56 -17 200 -98 215 -122 22 -32 11 -42 -18 -16 -28 26 -56 40 -192 96 -140 57 -305 135 -374 176 -52 31 -74 35 -54 9 22 -28 53 -132 53 -179 0 -50 -18 -96 -67 -171 -24 -35 -24 -40 -14 -107 6 -38 11 -134 11 -213 l0 -144 33 -11 c72 -26 162 -35 243 -24 185 26 329 104 454 247 56 63 69 72 150 100 l65 23 -50 1 -50 2 41 13 c53 17 86 34 101 54 21 27 15 30 -34 15 -25 -8 -50 -14 -55 -14 -17 0 -7 19 13 25 24 8 79 90 79 117 0 17 -5 15 -44 -12 -62 -42 -80 -41 -51 4 17 26 33 126 20 126 -5 0 -19 -10 -32 -22 -35 -32 -27 -9 11 37 l34 40 7 -37 c4 -21 5 -53 3 -72 -3 -30 -2 -33 11 -23 30 25 82 118 107 194 24 72 26 88 22 213 -4 123 -7 142 -36 213 -37 91 -82 164 -145 235 -52 59 -208 202 -219 202 -4 0 -5 -13 -1 -30z"/>
 <path d="M1741 2271 c-1 -21 -3 -22 -18 -10 -17 12 -17 12 -1 -6 21 -22 31 -16 25 17 l-4 23 -2 -24z"/>
 <path d="M2880 2255 c19 -19 36 -35 39 -35 3 0 -10 16 -29 35 -19 19 -36 35 -39 35 -3 0 10 -16 29 -35z"/>
 <path d="M1326 2242 c-2 -4 9 -7 25 -8 16 -1 29 2 29 5 0 9 -48 12 -54 3z"/>
 <path d="M1335 2222 c-4 -4 -12 -7 -17 -7 -6 0 -13 -7 -15 -15 -4 -13 -3 -13 6 0 13 18 15 1 2 -18 -7 -12 -14 -11 -41 3 -35 18 -50 10 -50 -29 0 -14 -6 -17 -25 -14 -19 4 -25 1 -25 -12 0 -14 12 -19 57 -24 66 -8 203 3 203 16 0 42 -74 120 -95 100z"/>
 <path d="M885 2120 l-110 -6 107 -2 c63 -1 109 2 113 8 3 6 5 9 3 8 -2 -1 -52 -5 -113 -8z"/>
 <path d="M800 2089 c-121 -7 -181 -28 -223 -79 -52 -62 -60 -93 -66 -272 l-6 -167 -62 -38 c-71 -43 -168 -134 -223 -209 -103 -139 -149 -292 -157 -524 -4 -103 -1 -169 6 -197 11 -41 13 -43 51 -43 46 0 119 26 187 66 l47 27 -49 23 c-50 25 -85 51 -85 65 0 5 18 12 40 15 22 4 42 10 44 13 3 4 -13 33 -35 64 -43 65 -69 140 -69 200 l0 40 58 -6 c31 -3 65 -8 75 -12 15 -6 17 -1 17 47 0 64 18 91 36 56 12 -22 12 -21 19 15 4 20 12 40 17 43 8 5 17 -3 51 -50 5 -8 10 -7 16 2 6 10 12 -1 20 -35 15 -58 53 -135 86 -175 32 -38 32 -49 -9 -112 -67 -105 -187 -203 -315 -257 -79 -34 -54 -38 64 -10 176 43 325 111 396 182 l39 39 64 -35 c82 -46 204 -90 286 -105 36 -6 75 -13 88 -16 15 -3 29 -18 39 -42 58 -139 258 -354 393 -422 23 -12 23 -10 -6 21 -93 101 -164 227 -194 343 -25 98 -25 107 0 113 42 11 157 71 203 107 26 20 52 34 57 31 10 -6 5 -49 -10 -97 -9 -27 -8 -27 47 -30 l56 -3 -32 -31 -31 -30 54 -40 c79 -57 84 -68 49 -113 -35 -43 -120 -101 -147 -101 -17 0 -15 -5 15 -36 l34 -35 -60 2 c-70 2 -72 -3 -18 -70 61 -74 170 -138 194 -114 15 15 66 229 84 357 21 149 12 238 -46 429 -12 38 -18 71 -15 74 10 10 44 -78 62 -157 26 -118 30 -123 37 -35 7 82 -4 213 -23 285 l-11 42 -26 -26 c-24 -24 -43 -33 -43 -20 0 3 25 37 57 76 31 39 72 96 90 127 31 51 34 61 29 111 -7 73 -67 193 -150 296 -82 104 -129 171 -154 220 -44 85 -111 162 -165 188 -51 24 -57 24 -362 28 -170 2 -357 1 -415 -3z m774 -95 c9 -8 16 -29 16 -45 0 -25 -4 -29 -29 -29 -18 0 -41 10 -58 25 l-28 25 24 20 c28 24 54 26 75 4z m-414 -186 c-74 -62 -225 -99 -340 -82 -67 10 -78 19 -57 47 11 16 18 17 67 6 76 -16 191 -6 275 24 87 31 85 31 55 5z m483 -249 c34 -90 67 -139 127 -190 40 -33 50 -48 48 -68 -5 -38 -23 -36 -71 8 -68 63 -137 214 -137 302 0 31 5 24 33 -52z"/>
 <path d="M445 1774 l-30 -26 33 22 c17 12 32 23 32 26 0 7 -4 5 -35 -22z"/>
 <path d="M350 1693 l-55 -58 58 55 c31 30 57 56 57 57 0 8 -10 -1 -60 -54z"/>
 <path d="M445 1713 c-43 -22 -110 -89 -161 -159 -62 -87 -174 -328 -159 -343 3 -2 5 0 5 5 0 14 85 140 134 197 46 55 143 131 193 152 l33 14 0 75 c0 42 -3 76 -7 76 -5 -1 -21 -8 -38 -17z"/>
 <path d="M185 1459 c-9 -17 -15 -33 -13 -35 3 -2 12 12 21 31 21 43 13 47 -8 4z"/>
 <path d="M415 1150 c-8 -46 -21 -59 -30 -30 -12 38 -25 20 -25 -34 l0 -54 -52 14 c-82 21 -98 19 -98 -14 0 -52 30 -130 75 -198 25 -36 42 -70 39 -75 -3 -5 -17 -9 -32 -9 -38 0 -57 -13 -40 -27 23 -19 62 -36 97 -44 30 -7 42 -3 89 28 56 38 120 110 152 173 l19 37 -25 34 c-14 19 -41 65 -61 103 -35 69 -82 136 -95 136 -3 0 -9 -18 -13 -40z"/>
 <path d="M2746 882 c-49 -53 -70 -79 -47 -57 43 40 146 155 139 155 -1 0 -43 -44 -92 -98z"/>
 <path d="M32 900 c0 -19 2 -27 5 -17 2 9 2 25 0 35 -3 9 -5 1 -5 -18z"/>
 <path d="M1635 739 c-22 -17 -73 -48 -113 -71 l-74 -41 6 -46 c9 -67 42 -161 76 -214 24 -39 37 -48 81 -61 29 -9 59 -16 66 -16 21 0 15 16 -12 34 -30 20 -32 36 -5 36 55 0 188 101 177 134 -2 6 -31 31 -65 56 -65 48 -74 65 -42 75 31 10 25 33 -8 29 -44 -5 -57 8 -43 46 13 38 14 70 4 69 -5 0 -26 -14 -48 -30z"/>
 <path d="M2540 725 c-25 -13 -41 -24 -37 -25 11 0 87 39 87 45 0 7 0 7 -50 -20z"/>
 <path d="M660 665 c-25 -13 -41 -24 -37 -25 11 0 87 39 87 45 0 7 0 7 -50 -20z"/>
 <path d="M54 557 c3 -10 6 -21 6 -23 0 -2 33 -3 73 -2 l72 2 -65 3 c-46 3 -69 9 -79 21 -13 16 -13 16 -7 -1z"/>
 <path d="M1360 348 c41 -45 50 -53 50 -45 0 2 -21 23 -47 47 l-48 45 45 -47z"/>
 <path d="M1630 145 c0 -7 61 -37 66 -33 2 3 -12 12 -31 21 -19 9 -35 15 -35 12z"/>
 </g>
<g id="layer108" fill="#9d7962" stroke="none">
 <path d="M1935 2668 c-63 -75 -124 -241 -145 -395 -18 -131 -10 -207 30 -281 60 -112 141 -186 127 -114 -14 71 -19 152 -9 152 6 0 14 -10 18 -22 10 -34 61 -105 80 -112 26 -10 28 0 10 44 -9 22 -13 40 -10 40 3 0 20 -11 39 -25 39 -30 74 -42 170 -56 80 -11 165 -4 165 15 0 7 -29 54 -65 104 -36 50 -65 93 -65 96 0 3 26 -7 58 -21 31 -15 81 -29 111 -31 52 -5 53 -4 46 19 -4 13 -18 43 -31 66 -31 54 -30 63 4 31 15 -13 43 -34 63 -46 35 -21 37 -21 53 -3 39 43 46 133 16 199 l-19 42 44 -26 c43 -25 45 -25 45 -6 0 31 -48 72 -151 129 -113 62 -210 102 -366 149 -63 19 -132 46 -153 59 l-39 24 -26 -31z"/>
 <path d="M1378 2513 c18 -2 45 -2 60 0 15 2 0 4 -33 4 -33 0 -45 -2 -27 -4z"/>
 <path d="M1362 2488 c-28 -8 -32 -11 -22 -23 10 -12 10 -15 -1 -15 -10 0 -10 -3 -1 -12 17 -17 15 -39 -3 -32 -8 4 -15 14 -15 24 0 11 -4 22 -10 25 -6 4 -10 -9 -10 -30 0 -29 8 -45 35 -72 19 -19 38 -46 41 -59 3 -13 10 -24 15 -24 5 0 9 -6 9 -14 0 -7 11 -38 25 -68 22 -47 31 -57 66 -68 23 -8 50 -13 60 -13 11 1 19 -1 19 -5 0 -4 14 -13 32 -21 17 -8 40 -23 51 -34 14 -14 22 -17 25 -9 7 21 25 13 19 -9 -4 -13 6 -39 26 -72 34 -56 44 -51 26 15 -7 24 -12 72 -12 107 1 50 -4 76 -23 113 -14 27 -31 51 -39 55 -8 3 -13 9 -10 13 2 4 -12 25 -33 47 -20 21 -48 54 -62 72 -44 57 -57 71 -68 71 -5 0 -12 9 -15 20 -3 12 -14 20 -26 20 -17 0 -21 -6 -21 -34 0 -61 -35 -53 -42 10 -3 29 -4 30 -36 22z"/>
 <path d="M1540 2460 c12 -16 24 -30 26 -30 3 0 -4 14 -16 30 -12 17 -24 30 -26 30 -3 0 4 -13 16 -30z"/>
 <path d="M1625 2360 c33 -33 62 -60 64 -60 3 0 -21 27 -54 60 -33 33 -62 60 -64 60 -3 0 21 -27 54 -60z"/>
 <path d="M1230 2370 c11 -16 26 -33 32 -36 7 -4 -1 9 -16 29 -34 44 -46 50 -16 7z"/>
 <path d="M1085 2367 c-8 -13 -20 -38 -27 -57 -6 -19 -18 -41 -25 -48 -8 -8 -13 -37 -13 -73 0 -55 1 -59 24 -59 13 0 37 -3 53 -6 24 -5 31 -1 43 20 8 16 22 26 35 26 20 0 45 34 45 61 0 6 7 17 15 25 34 35 8 77 -34 54 -17 -8 -21 -8 -21 4 0 8 7 22 16 31 13 13 14 18 3 31 -11 13 -15 12 -34 -6 -28 -26 -49 -26 -42 0 7 28 -19 26 -38 -3z"/>
 <path d="M2687 2352 c6 -4 9 -19 6 -35 -4 -20 -11 -27 -29 -27 -15 0 -24 6 -24 15 0 8 -5 15 -10 15 -7 0 -7 -6 0 -19 22 -42 1 -161 -35 -197 -16 -16 -55 -19 -55 -4 0 6 -7 10 -15 10 -16 0 -20 -12 -7 -24 11 -11 9 -29 -4 -43 -13 -13 -94 -14 -94 -1 0 4 -13 8 -30 8 -34 0 -37 -8 -12 -38 42 -51 52 -67 52 -84 0 -10 5 -18 10 -18 6 0 10 -4 10 -9 0 -24 -221 -44 -235 -21 -3 6 -24 10 -45 10 -21 0 -42 5 -45 10 -12 19 -45 11 -45 -10 0 -32 -46 -26 -80 10 -15 17 -30 30 -33 30 -2 0 -5 -25 -5 -56 0 -31 -3 -58 -6 -62 -4 -3 -15 4 -26 16 -12 12 -28 22 -38 22 -10 0 -25 17 -35 40 -19 41 -37 53 -37 24 0 -21 20 -57 37 -67 7 -5 11 -13 7 -18 -6 -11 55 -105 90 -137 11 -11 32 -34 46 -51 14 -17 29 -31 33 -31 4 0 17 -9 29 -20 12 -11 28 -20 35 -20 7 0 13 -4 13 -8 0 -12 46 -32 71 -32 11 0 18 -4 15 -8 -6 -10 105 -72 128 -72 9 0 16 -4 16 -10 0 -5 9 -10 19 -10 11 0 23 -4 26 -10 3 -5 13 -10 21 -10 9 0 22 -7 30 -15 8 -8 22 -11 30 -8 9 3 19 2 23 -3 9 -14 49 -34 66 -34 8 0 15 -4 15 -10 0 -5 9 -10 19 -10 10 0 22 -7 25 -16 3 -8 10 -13 14 -10 10 6 45 -30 55 -57 9 -25 -35 -23 -53 3 -8 11 -25 20 -37 20 -13 0 -23 5 -23 10 0 6 -6 10 -14 10 -7 0 -19 6 -26 14 -6 8 -18 12 -26 9 -8 -3 -14 0 -14 6 0 5 -19 16 -42 23 -24 6 -58 20 -76 30 -18 10 -39 18 -46 18 -7 0 -19 7 -26 15 -7 9 -19 14 -27 11 -7 -3 -13 -1 -13 4 0 6 -9 10 -20 10 -11 0 -20 5 -20 10 0 6 -7 10 -15 10 -14 0 -53 18 -65 30 -7 7 -41 28 -68 42 -22 11 -45 3 -26 -10 12 -8 44 -137 44 -177 0 -25 -26 -94 -40 -105 -4 -3 -17 -24 -29 -46 -19 -34 -22 -50 -17 -90 3 -27 9 -114 11 -194 7 -165 10 -190 29 -190 7 0 26 -6 42 -14 34 -17 247 -16 279 1 11 6 38 16 60 23 62 18 146 61 152 76 3 8 13 14 22 14 9 0 23 9 31 20 8 11 18 20 22 20 7 0 50 43 120 120 21 23 42 39 47 36 5 -3 14 1 21 9 7 8 25 15 41 15 16 0 29 5 29 10 0 6 -12 9 -27 8 -38 -4 -45 16 -8 20 17 2 35 8 42 14 7 5 16 7 21 4 12 -7 58 32 49 41 -4 3 -17 2 -29 -4 -15 -7 -32 -7 -48 -1 l-25 10 25 16 c46 32 70 63 70 90 -1 25 -2 25 -14 10 -7 -10 -18 -18 -25 -18 -6 0 -11 -3 -11 -7 0 -5 -4 -14 -9 -22 -8 -12 -12 -12 -25 2 -14 14 -14 20 9 69 14 29 20 55 15 56 -6 2 -8 8 -4 13 8 13 -30 11 -44 -3 -9 -9 -12 -8 -12 4 0 9 5 20 10 23 6 4 8 11 5 16 -4 5 2 9 11 9 10 0 15 3 11 6 -8 8 18 34 33 34 13 0 30 -42 30 -76 0 -33 16 -30 32 6 7 17 16 30 20 30 13 0 57 136 69 213 7 45 9 99 4 130 -4 28 -8 61 -9 72 -7 70 -74 229 -115 272 -12 12 -21 25 -21 29 0 4 -11 19 -25 33 -14 14 -43 45 -64 69 -22 23 -44 42 -50 42 -5 0 -13 9 -16 20 -3 11 -11 20 -16 20 -5 0 -23 16 -40 35 -17 19 -36 35 -43 35 -8 0 -8 -2 1 -8z"/>
 <path d="M1741 2271 c-1 -21 -3 -22 -18 -10 -17 12 -17 12 -1 -6 21 -22 31 -16 25 17 l-4 23 -2 -24z"/>
 <path d="M2880 2255 c19 -19 36 -35 39 -35 3 0 -10 16 -29 35 -19 19 -36 35 -39 35 -3 0 10 -16 29 -35z"/>
 <path d="M1326 2242 c-2 -4 9 -7 25 -8 16 -1 29 2 29 5 0 9 -48 12 -54 3z"/>
 <path d="M1335 2222 c-4 -4 -12 -7 -17 -7 -6 0 -13 -7 -15 -15 -4 -13 -3 -13 6 0 13 18 15 1 2 -18 -7 -12 -14 -11 -41 3 -35 18 -50 10 -50 -27 0 -12 -8 -18 -25 -18 -14 0 -25 -6 -25 -14 0 -9 19 -15 57 -20 66 -8 203 3 203 16 0 42 -74 120 -95 100z"/>
 <path d="M885 2120 l-110 -6 107 -2 c63 -1 109 2 113 8 3 6 5 9 3 8 -2 -1 -52 -5 -113 -8z"/>
 <path d="M715 2079 c-51 -12 -95 -32 -95 -42 0 -5 -4 -6 -8 -3 -5 3 -16 -8 -26 -25 -9 -16 -14 -29 -9 -30 4 0 -2 -4 -13 -9 -21 -8 -24 -17 -44 -125 -12 -67 -12 -162 -1 -170 9 -5 7 -45 -5 -102 -3 -15 -12 -23 -24 -23 -11 0 -20 -5 -20 -11 0 -6 -5 -9 -12 -7 -7 3 -22 -6 -34 -19 -12 -13 -27 -23 -33 -23 -18 0 -141 -126 -141 -144 0 -9 -7 -16 -16 -16 -8 0 -20 -13 -25 -30 -6 -16 -15 -30 -19 -30 -11 0 -40 -59 -40 -82 0 -10 -4 -18 -9 -18 -8 0 -27 -55 -51 -150 -31 -122 -38 -374 -11 -431 12 -24 15 -25 69 -18 67 8 90 16 116 41 11 10 27 18 37 18 17 0 32 23 22 34 -4 3 -12 6 -20 6 -7 0 -29 10 -48 23 -26 16 -35 29 -35 50 0 25 3 27 40 27 35 0 54 12 33 22 -16 7 -62 85 -77 128 -32 96 -29 197 6 162 6 -6 36 -12 65 -12 l53 0 0 44 c0 51 20 76 45 56 12 -10 15 -9 15 8 0 34 11 52 32 52 10 0 16 -4 13 -10 -3 -5 -2 -10 4 -10 5 0 14 -12 19 -27 7 -18 11 -22 11 -10 2 31 17 18 31 -25 16 -51 58 -146 71 -162 42 -50 49 -61 49 -76 0 -9 -9 -27 -20 -40 -11 -13 -21 -27 -21 -32 -1 -4 -3 -12 -4 -18 -1 -5 -3 -14 -4 -20 0 -5 -6 -10 -13 -10 -7 0 -33 -22 -59 -50 -25 -27 -49 -47 -52 -43 -4 3 -12 -6 -18 -21 -7 -15 -18 -25 -26 -22 -7 3 -25 -5 -40 -17 -27 -22 -55 -36 -98 -53 -17 -6 -18 -8 -3 -11 9 -2 26 1 37 6 11 6 30 11 42 11 40 0 150 40 143 52 -3 4 10 8 28 8 18 0 44 9 58 20 14 11 31 20 38 20 17 0 43 26 35 34 -4 3 4 6 16 6 13 0 39 17 61 40 37 39 60 50 60 30 0 -5 7 -10 15 -10 8 0 15 -3 15 -7 0 -11 50 -33 72 -33 10 0 18 -4 18 -10 0 -5 9 -10 20 -10 11 0 20 -4 20 -9 0 -9 125 -51 152 -51 10 0 29 -5 43 -12 22 -10 28 -9 36 3 8 11 12 11 16 2 2 -7 12 -13 21 -13 11 0 31 -28 57 -80 21 -44 42 -80 46 -80 4 0 10 -8 13 -17 4 -10 19 -33 35 -51 17 -18 31 -36 33 -40 3 -8 112 -108 144 -132 94 -74 127 -93 80 -45 -14 14 -30 25 -37 25 -6 0 -8 7 -5 15 3 9 -1 18 -9 21 -8 3 -17 14 -20 25 -4 10 -12 25 -19 31 -26 27 -88 164 -107 235 -24 89 -19 113 21 113 16 0 32 5 35 10 4 6 10 8 15 5 4 -3 13 2 20 10 7 8 18 15 24 15 7 0 21 8 32 18 10 10 34 25 52 33 18 7 35 22 38 32 3 10 13 17 22 15 13 -3 17 -14 17 -48 0 -25 -4 -56 -9 -68 -8 -23 -7 -24 40 -20 57 4 66 -10 29 -44 l-26 -24 32 -25 c18 -13 38 -30 45 -36 7 -7 20 -13 28 -13 12 0 16 -10 16 -35 0 -42 -48 -92 -122 -127 -45 -22 -61 -38 -37 -38 18 0 41 -30 35 -46 -4 -11 -19 -14 -56 -13 -59 3 -66 -1 -42 -27 10 -10 21 -27 25 -36 3 -10 12 -18 19 -18 7 0 19 -9 26 -20 7 -11 19 -20 27 -20 8 0 15 -4 15 -10 0 -5 7 -10 15 -10 8 0 15 -4 15 -10 0 -5 8 -10 18 -10 10 0 24 -6 31 -12 11 -10 13 -10 7 0 -4 6 -3 12 2 12 17 0 61 146 83 275 14 86 23 305 12 305 -4 0 -9 17 -10 38 -1 21 -15 80 -32 131 -17 52 -31 101 -31 109 0 31 35 -15 49 -65 8 -26 18 -55 22 -63 4 -8 10 -27 14 -42 3 -16 10 -28 16 -28 7 0 9 30 5 88 -2 48 -5 101 -5 119 0 17 -5 34 -10 38 -6 3 -8 11 -6 18 3 7 1 18 -4 26 -7 11 -13 10 -32 -8 -21 -19 -49 -28 -49 -15 0 11 23 48 44 69 11 12 32 36 46 54 14 18 30 39 37 46 52 56 74 182 38 219 -8 8 -15 26 -15 40 0 14 -4 26 -9 26 -5 0 -14 14 -20 30 -5 17 -14 30 -19 30 -5 0 -15 14 -22 30 -7 17 -16 30 -21 30 -4 0 -10 9 -14 20 -3 11 -24 39 -46 62 -21 23 -42 50 -45 60 -3 10 -12 18 -19 18 -8 0 -17 11 -21 25 -3 14 -11 22 -17 18 -6 -4 -8 0 -4 10 7 18 -46 113 -75 135 -10 7 -18 20 -18 28 0 8 -8 18 -17 21 -10 4 -29 19 -43 33 -14 15 -38 30 -55 35 -43 12 -782 15 -830 4z m876 -91 c22 -25 21 -20 9 -52 -15 -39 -62 -36 -106 8 -39 39 -41 46 -14 46 11 0 20 5 20 10 0 20 72 11 91 -12z m-411 -162 c0 -22 -119 -95 -143 -88 -4 1 -36 -5 -70 -14 -59 -15 -85 -15 -189 2 -20 3 -39 12 -42 20 -8 21 4 44 23 45 40 3 87 -4 98 -13 20 -16 223 6 223 24 0 6 6 8 14 5 7 -3 26 3 42 13 36 23 44 24 44 6z m445 -198 c4 -13 9 -31 10 -41 1 -10 7 -23 14 -30 6 -6 11 -18 11 -26 0 -13 56 -109 71 -121 79 -63 89 -75 89 -112 0 -20 -4 -40 -10 -43 -5 -3 -10 -1 -10 4 0 6 -7 11 -15 11 -8 0 -15 5 -15 10 0 6 -5 10 -11 10 -16 0 -89 88 -89 108 0 5 -8 20 -18 33 -33 42 -67 219 -43 219 5 0 12 -10 16 -22z"/>
 <path d="M445 1774 l-30 -26 33 22 c17 12 32 23 32 26 0 7 -4 5 -35 -22z"/>
 <path d="M350 1693 l-55 -58 58 55 c31 30 57 56 57 57 0 8 -10 -1 -60 -54z"/>
 <path d="M419 1688 c-17 -15 -35 -28 -38 -28 -21 0 -169 -219 -178 -262 -3 -16 -8 -28 -12 -28 -3 0 -12 -15 -19 -32 -8 -18 -19 -43 -25 -55 -18 -39 -1 -35 19 4 10 21 25 44 31 51 7 7 13 17 13 22 0 14 160 170 175 170 8 0 15 5 15 10 0 6 7 10 15 10 8 0 15 5 15 10 0 6 9 10 20 10 11 0 20 5 20 11 0 5 3 8 8 6 4 -3 7 25 7 62 0 78 -13 85 -66 39z"/>
 <path d="M185 1459 c-9 -17 -15 -33 -13 -35 3 -2 12 12 21 31 21 43 13 47 -8 4z"/>
 <path d="M415 1150 c-8 -46 -21 -59 -30 -30 -12 38 -25 20 -25 -34 l0 -54 -52 14 c-82 21 -98 19 -98 -14 0 -52 30 -130 75 -198 25 -36 42 -70 39 -75 -3 -5 -17 -9 -32 -9 -38 0 -57 -13 -40 -27 23 -19 62 -36 97 -44 30 -7 42 -3 89 28 56 38 120 110 152 173 l19 37 -25 34 c-14 19 -41 65 -61 103 -35 69 -82 136 -95 136 -3 0 -9 -18 -13 -40z"/>
 <path d="M2746 882 c-49 -53 -70 -79 -47 -57 43 40 146 155 139 155 -1 0 -43 -44 -92 -98z"/>
 <path d="M32 900 c0 -19 2 -27 5 -17 2 9 2 25 0 35 -3 9 -5 1 -5 -18z"/>
 <path d="M1635 739 c-22 -17 -73 -48 -113 -71 l-74 -41 6 -46 c9 -67 42 -161 76 -214 24 -39 37 -48 81 -61 29 -9 59 -16 66 -16 21 0 15 16 -12 34 -30 20 -32 36 -5 36 55 0 188 101 177 134 -2 6 -31 31 -65 56 -65 48 -74 65 -42 75 31 10 25 33 -8 29 -44 -5 -57 8 -43 46 13 38 14 70 4 69 -5 0 -26 -14 -48 -30z"/>
 <path d="M2540 725 c-25 -13 -41 -24 -37 -25 11 0 87 39 87 45 0 7 0 7 -50 -20z"/>
 <path d="M660 665 c-25 -13 -41 -24 -37 -25 11 0 87 39 87 45 0 7 0 7 -50 -20z"/>
 <path d="M54 557 c3 -10 6 -21 6 -23 0 -2 33 -3 73 -2 l72 2 -65 3 c-46 3 -69 9 -79 21 -13 16 -13 16 -7 -1z"/>
 <path d="M1360 348 c41 -45 50 -53 50 -45 0 2 -21 23 -47 47 l-48 45 45 -47z"/>
 <path d="M1630 145 c0 -7 61 -37 66 -33 2 3 -12 12 -31 21 -19 9 -35 15 -35 12z"/>
 </g>
<g id="layer109" fill="#fc6603" stroke="none">
 <path d="M1935 2668 c-90 -107 -166 -382 -153 -551 6 -70 47 -156 108 -228 39 -44 65 -52 57 -16 -4 12 -9 52 -13 90 -8 76 4 88 30 30 21 -47 45 -76 73 -92 22 -11 22 -11 9 34 -13 40 -7 61 9 35 25 -40 219 -87 307 -75 53 8 57 16 25 62 -12 17 -41 59 -64 92 -24 33 -43 63 -43 65 0 3 24 -6 54 -19 30 -13 77 -27 105 -31 46 -6 51 -5 51 12 0 11 -11 40 -25 66 -14 26 -25 50 -25 53 0 3 27 -15 61 -40 34 -25 66 -42 71 -39 19 12 48 89 48 129 0 22 -9 60 -20 83 l-20 44 45 -27 c45 -26 54 -21 34 18 -17 31 -43 50 -144 106 -108 60 -207 100 -362 147 -63 19 -132 46 -153 59 l-39 24 -26 -31z"/>
 <path d="M1413 2513 c9 -2 25 -2 35 0 9 3 1 5 -18 5 -19 0 -27 -2 -17 -5z"/>
 <path d="M1346 2482 c-3 -5 -3 -25 0 -45 3 -29 1 -35 -11 -31 -8 4 -15 15 -15 25 0 10 -4 19 -10 19 -5 0 -10 -14 -10 -31 0 -22 10 -41 35 -66 19 -19 38 -46 41 -59 3 -13 10 -24 15 -24 5 0 9 -6 9 -14 0 -8 11 -38 24 -67 26 -56 61 -79 117 -79 16 0 29 -3 29 -8 0 -4 15 -14 33 -22 17 -7 41 -22 52 -32 11 -11 21 -14 23 -8 6 17 23 11 20 -7 -3 -21 21 -83 32 -83 4 0 11 -10 15 -22 12 -42 16 0 4 44 -7 24 -12 72 -12 107 1 50 -4 76 -23 113 -14 27 -31 51 -39 55 -8 3 -13 9 -10 13 2 4 -12 25 -33 47 -20 21 -48 54 -62 72 -44 57 -57 71 -68 71 -5 0 -12 9 -15 20 -3 12 -14 20 -26 20 -17 0 -21 -6 -21 -33 0 -19 -3 -37 -7 -40 -12 -13 -33 15 -33 44 0 24 -4 29 -24 29 -14 0 -27 -4 -30 -8z"/>
 <path d="M1625 2360 c33 -33 62 -60 64 -60 3 0 -21 27 -54 60 -33 33 -62 60 -64 60 -3 0 21 -27 54 -60z"/>
 <path d="M1085 2367 c-8 -13 -20 -38 -27 -57 -6 -19 -18 -41 -25 -48 -8 -8 -13 -37 -13 -73 0 -55 1 -59 24 -59 13 0 37 -3 53 -6 24 -5 31 -1 43 20 8 16 22 26 35 26 20 0 45 34 45 61 0 6 7 17 15 25 17 17 20 50 6 58 -5 4 -21 2 -35 -4 -31 -11 -36 8 -10 35 13 13 14 18 3 31 -11 13 -15 12 -34 -6 -28 -26 -49 -26 -42 0 7 28 -19 26 -38 -3z"/>
 <path d="M2694 2323 c-5 -26 -11 -33 -30 -33 -15 0 -24 6 -24 15 0 8 -5 15 -10 15 -7 0 -7 -6 0 -19 22 -42 1 -161 -35 -197 -16 -16 -55 -19 -55 -4 0 6 -7 10 -15 10 -16 0 -20 -12 -7 -24 11 -11 9 -29 -4 -43 -13 -13 -94 -14 -94 -1 0 4 -13 8 -30 8 -34 0 -37 -8 -12 -38 42 -51 52 -67 52 -84 0 -10 5 -18 10 -18 6 0 10 -4 10 -9 0 -24 -221 -44 -235 -21 -3 6 -24 10 -45 10 -21 0 -42 5 -45 10 -12 19 -45 11 -45 -10 0 -32 -46 -26 -80 10 -15 17 -30 30 -33 30 -2 0 -5 -25 -5 -56 0 -62 -5 -72 -25 -56 -8 7 -17 8 -21 4 -4 -4 -6 0 -4 8 2 8 -5 16 -17 18 -12 2 -27 19 -38 43 -19 40 -37 51 -37 23 0 -21 20 -57 37 -67 7 -5 11 -13 7 -18 -6 -11 55 -105 90 -137 11 -11 32 -34 46 -51 14 -17 29 -31 33 -31 4 0 17 -9 29 -20 12 -11 28 -20 35 -20 7 0 13 -4 13 -8 0 -12 46 -32 71 -32 11 0 18 -4 15 -8 -6 -10 105 -72 128 -72 9 0 16 -4 16 -10 0 -5 9 -10 19 -10 11 0 23 -4 26 -10 3 -5 15 -10 26 -10 10 0 19 -4 19 -10 0 -5 14 -10 30 -10 17 0 30 -3 30 -7 0 -9 49 -33 67 -33 7 0 13 -4 13 -10 0 -5 9 -10 20 -10 11 0 20 -4 20 -10 0 -5 6 -10 13 -10 15 0 50 -37 60 -63 9 -25 -35 -23 -53 3 -8 11 -25 20 -37 20 -13 0 -23 3 -23 8 0 8 -49 32 -67 32 -7 0 -13 4 -13 8 0 4 -17 14 -37 21 -36 12 -106 42 -145 62 -10 5 -25 9 -33 9 -8 0 -15 5 -15 10 0 6 -9 10 -20 10 -11 0 -20 5 -20 10 0 6 -7 10 -15 10 -14 0 -53 18 -65 30 -3 3 -14 10 -25 16 -11 6 -30 17 -42 25 -22 13 -47 5 -27 -9 12 -8 44 -137 44 -177 0 -25 -26 -94 -40 -105 -4 -3 -17 -24 -29 -46 -19 -34 -22 -50 -17 -90 3 -27 9 -114 11 -194 7 -173 10 -190 33 -190 10 0 23 -5 29 -11 15 -15 253 -17 285 -3 12 6 41 17 63 23 62 19 146 62 152 77 3 8 13 14 22 14 9 0 23 9 31 20 8 11 18 20 22 20 7 0 51 43 120 119 20 23 44 41 52 41 8 0 18 5 21 10 3 6 19 10 36 10 16 0 29 5 29 10 0 6 -12 9 -27 8 -16 -2 -30 2 -33 7 -3 6 9 11 25 13 17 2 34 8 39 13 6 5 18 9 29 9 21 0 53 28 43 37 -3 3 -16 2 -28 -4 -15 -7 -32 -7 -48 -1 l-25 10 25 16 c41 29 70 62 70 82 0 11 -4 20 -10 20 -5 0 -10 -4 -10 -10 0 -5 -7 -10 -15 -10 -8 0 -15 -3 -15 -7 0 -5 -4 -14 -9 -22 -8 -12 -12 -12 -25 2 -16 15 -15 19 4 56 23 46 23 91 0 91 -9 0 -21 -5 -28 -12 -9 -9 -12 -8 -12 4 0 9 5 20 10 23 6 4 8 11 5 16 -4 5 2 9 11 9 10 0 15 3 11 6 -8 8 18 34 33 34 13 0 30 -42 30 -76 0 -33 16 -30 32 6 7 17 16 30 20 30 13 0 57 136 69 213 7 45 9 99 4 130 -4 28 -8 61 -9 72 -7 70 -74 229 -115 272 -12 12 -21 25 -21 29 0 4 -11 19 -25 33 -14 14 -43 45 -64 69 -22 23 -44 42 -50 42 -5 0 -13 9 -16 20 -3 11 -11 20 -16 20 -5 0 -23 15 -39 33 l-29 32 -7 -32z"/>
 <path d="M1741 2271 c-1 -21 -3 -22 -18 -10 -17 12 -17 12 -1 -6 21 -22 31 -16 25 17 l-4 23 -2 -24z"/>
 <path d="M2880 2255 c19 -19 36 -35 39 -35 3 0 -10 16 -29 35 -19 19 -36 35 -39 35 -3 0 10 -16 29 -35z"/>
 <path d="M1326 2242 c-2 -4 9 -7 25 -8 16 -1 29 2 29 5 0 9 -48 12 -54 3z"/>
 <path d="M1335 2222 c-4 -4 -12 -7 -17 -7 -6 0 -13 -7 -15 -15 -4 -13 -3 -13 6 0 13 18 14 1 2 -19 -7 -11 -14 -11 -42 3 -35 17 -49 10 -49 -26 0 -17 -11 -22 -39 -19 -7 2 -11 -4 -9 -11 6 -17 258 -25 258 -8 0 43 -74 123 -95 102z"/>
 <path d="M925 2120 l-70 -6 67 -2 c37 -1 70 3 73 8 3 6 5 9 3 8 -2 -1 -34 -4 -73 -8z"/>
 <path d="M715 2079 c-22 -5 -51 -15 -65 -21 -33 -17 -82 -66 -76 -77 3 -5 -3 -11 -13 -14 -18 -4 -21 -14 -41 -122 -12 -67 -12 -162 -1 -170 9 -5 7 -45 -5 -102 -3 -15 -12 -23 -24 -23 -11 0 -20 -4 -20 -10 0 -5 -6 -10 -13 -10 -7 0 -23 -9 -35 -20 -12 -11 -26 -20 -32 -20 -17 0 -140 -127 -140 -144 0 -9 -6 -16 -14 -16 -7 0 -19 -13 -26 -30 -7 -16 -16 -30 -19 -30 -9 0 -41 -66 -41 -85 0 -8 -4 -15 -10 -15 -16 0 -44 -107 -65 -250 -17 -116 -18 -263 -2 -310 11 -31 16 -35 52 -38 49 -4 111 13 138 39 11 10 28 19 38 19 17 0 32 23 22 34 -4 3 -12 6 -20 6 -7 0 -29 10 -48 23 -26 16 -35 29 -35 50 0 25 3 27 40 27 35 0 54 12 33 22 -16 7 -62 85 -77 128 -32 96 -29 197 6 162 6 -6 36 -12 65 -12 l53 0 0 44 c0 51 20 76 45 56 12 -10 15 -9 15 8 0 34 11 52 32 52 10 0 16 -4 13 -10 -3 -5 -2 -10 3 -10 5 0 14 -10 20 -22 6 -13 11 -17 11 -10 2 26 18 10 31 -30 16 -51 58 -146 71 -162 42 -50 49 -61 49 -76 0 -9 -9 -27 -20 -40 -11 -13 -21 -27 -21 -32 -1 -4 -3 -12 -4 -18 -1 -5 -3 -14 -4 -20 0 -5 -6 -10 -13 -10 -7 0 -33 -22 -59 -50 -26 -27 -52 -50 -57 -50 -6 0 -14 -9 -17 -20 -4 -13 -15 -20 -31 -20 -13 0 -24 -4 -24 -8 0 -8 -59 -40 -105 -58 -17 -6 -18 -8 -3 -11 9 -2 26 1 37 6 11 6 30 11 42 11 40 0 150 40 143 52 -3 4 10 8 28 8 18 0 44 9 58 20 14 11 31 20 38 20 17 0 43 26 35 34 -4 3 4 6 16 6 13 0 39 17 61 40 37 39 60 50 60 30 0 -5 7 -10 15 -10 8 0 15 -3 15 -7 0 -11 50 -33 72 -33 10 0 18 -4 18 -10 0 -5 9 -10 20 -10 11 0 20 -4 20 -9 0 -9 125 -51 152 -51 10 0 29 -5 43 -12 22 -10 28 -9 36 3 8 11 12 11 16 2 2 -7 12 -13 21 -13 11 0 31 -28 57 -80 21 -44 42 -80 46 -80 4 0 10 -8 13 -17 9 -28 170 -203 186 -203 3 0 21 -14 40 -30 37 -31 50 -37 50 -20 0 6 -7 10 -15 10 -8 0 -15 9 -15 20 0 11 -4 20 -9 20 -5 0 -13 9 -16 20 -3 11 -12 26 -20 33 -26 26 -87 161 -106 234 -22 85 -18 113 16 113 22 0 134 53 145 69 3 4 20 14 38 22 18 8 35 22 38 32 3 10 13 17 22 15 13 -3 17 -14 17 -48 0 -25 -4 -56 -9 -68 -8 -23 -7 -24 40 -20 57 4 66 -10 29 -44 l-26 -24 32 -25 c18 -13 38 -30 45 -36 7 -7 20 -13 28 -13 12 0 16 -10 16 -35 0 -42 -48 -92 -122 -127 -45 -22 -61 -38 -37 -38 18 0 41 -30 35 -45 -3 -9 -24 -15 -61 -17 -56 -3 -56 -3 -38 -23 11 -11 22 -28 26 -37 3 -10 12 -18 19 -18 7 0 19 -9 26 -20 7 -11 19 -20 27 -20 8 0 15 -4 15 -10 0 -5 7 -10 15 -10 8 0 15 -4 15 -10 0 -5 8 -10 18 -10 10 0 24 -6 31 -12 11 -10 13 -10 7 0 -4 6 -3 12 2 12 17 0 61 146 83 275 14 88 23 305 12 305 -5 0 -10 19 -12 42 -1 23 -15 82 -32 131 -16 49 -29 97 -29 105 0 31 35 -15 49 -65 8 -26 18 -55 22 -63 4 -8 10 -27 14 -42 3 -16 10 -28 16 -28 7 0 9 30 5 88 -2 48 -5 101 -5 119 0 17 -5 34 -10 38 -6 3 -8 11 -6 18 3 7 1 19 -5 27 -7 12 -12 11 -28 -8 -17 -20 -52 -31 -52 -16 0 11 23 48 44 69 11 12 32 36 46 54 14 18 30 38 36 45 52 56 75 184 39 220 -8 8 -15 26 -15 40 0 14 -4 26 -9 26 -5 0 -14 14 -20 30 -5 17 -14 30 -19 30 -5 0 -15 14 -22 30 -7 17 -16 30 -21 30 -4 0 -10 9 -14 20 -3 11 -24 39 -46 62 -21 23 -42 50 -45 60 -3 10 -12 18 -19 18 -8 0 -17 11 -21 25 -3 14 -11 22 -17 18 -6 -4 -8 0 -4 10 7 18 -46 113 -75 135 -10 7 -18 20 -18 28 0 8 -8 18 -17 21 -10 4 -29 19 -43 33 -14 15 -38 30 -55 35 -42 11 -782 15 -830 4z m876 -91 c22 -25 21 -20 9 -52 -15 -39 -62 -36 -106 8 -39 39 -41 46 -14 46 11 0 20 5 20 10 0 20 72 11 91 -12z m-411 -162 c0 -29 -116 -90 -195 -102 -103 -16 -239 -4 -249 22 -8 21 4 44 23 45 40 3 87 -4 98 -13 19 -15 223 6 223 23 0 5 10 9 23 9 13 0 32 7 43 15 24 18 34 19 34 1z m448 -203 c6 -15 12 -35 12 -44 0 -10 5 -21 10 -24 6 -3 10 -13 10 -22 0 -15 55 -111 71 -123 79 -63 89 -75 89 -112 0 -20 -4 -40 -10 -43 -5 -3 -10 -1 -10 4 0 6 -7 11 -15 11 -8 0 -15 5 -15 10 0 6 -5 10 -11 10 -16 0 -89 88 -89 108 0 5 -8 20 -18 33 -32 41 -68 219 -44 219 4 0 13 -12 20 -27z"/>
 <path d="M445 1774 l-30 -26 33 22 c17 12 32 23 32 26 0 7 -4 5 -35 -22z"/>
 <path d="M415 1685 c-52 -43 -94 -88 -119 -125 -69 -104 -88 -138 -93 -162 -3 -16 -8 -28 -12 -28 -3 0 -12 -15 -19 -32 -8 -18 -19 -43 -25 -55 -18 -39 -2 -34 18 5 11 20 26 43 32 50 7 7 13 17 13 22 0 14 160 170 175 170 8 0 15 5 15 10 0 6 7 10 15 10 8 0 15 5 15 10 0 6 9 10 19 10 24 0 31 19 31 86 0 63 -15 70 -65 29z"/>
 <path d="M185 1459 c-9 -17 -15 -33 -13 -35 3 -2 12 12 21 31 21 43 13 47 -8 4z"/>
 <path d="M415 1150 c-8 -46 -24 -62 -32 -31 -9 35 -23 12 -23 -38 l0 -48 -62 14 c-35 7 -69 10 -77 8 -32 -12 21 -166 85 -251 33 -42 30 -54 -10 -54 -74 0 -51 -39 37 -65 46 -14 50 -13 87 10 60 38 141 127 173 191 15 29 14 32 -9 61 -13 18 -41 65 -62 106 -33 66 -83 137 -95 137 -3 0 -8 -18 -12 -40z"/>
 <path d="M2741 877 c-47 -50 -63 -72 -37 -47 45 42 132 140 124 140 -1 0 -41 -42 -87 -93z"/>
 <path d="M32 900 c0 -19 2 -27 5 -17 2 9 2 25 0 35 -3 9 -5 1 -5 -18z"/>
 <path d="M1637 736 c-26 -18 -79 -50 -117 -70 -79 -42 -80 -44 -55 -141 16 -60 66 -168 89 -193 14 -15 125 -46 134 -38 3 3 -7 15 -21 27 -15 11 -27 24 -27 28 0 4 19 12 43 18 53 15 122 64 142 102 l15 30 -65 48 c-67 50 -79 71 -45 80 31 8 24 23 -12 24 -18 1 -36 1 -40 0 -11 -1 -10 17 3 62 6 21 9 42 7 48 -2 5 -24 -6 -51 -25z"/>
 <path d="M2540 725 c-25 -13 -41 -24 -37 -25 11 0 87 39 87 45 0 7 0 7 -50 -20z"/>
 <path d="M660 665 c-25 -13 -41 -24 -37 -25 11 0 87 39 87 45 0 7 0 7 -50 -20z"/>
 <path d="M54 557 c3 -10 6 -21 6 -23 0 -2 33 -3 73 -2 l72 2 -65 3 c-46 3 -69 9 -79 21 -13 16 -13 16 -7 -1z"/>
 <path d="M1360 348 c41 -45 50 -53 50 -45 0 2 -21 23 -47 47 l-48 45 45 -47z"/>
 <path d="M1630 145 c0 -7 61 -37 66 -33 2 3 -12 12 -31 21 -19 9 -35 15 -35 12z"/>
 </g>
<g id="layer110" fill="#77838b" stroke="none">
 <path d="M1935 2668 c-90 -107 -166 -382 -153 -551 6 -70 47 -156 108 -228 39 -44 65 -52 57 -16 -4 12 -9 52 -13 90 -8 76 4 88 30 30 21 -47 45 -76 73 -92 22 -11 22 -11 9 34 -13 40 -7 61 9 35 25 -40 219 -87 307 -75 53 8 57 16 25 62 -12 17 -41 59 -64 92 -24 33 -43 63 -43 65 0 3 24 -6 54 -19 30 -13 77 -27 105 -31 46 -6 51 -5 51 12 0 11 -11 40 -25 66 -14 26 -25 50 -25 53 0 3 27 -15 61 -40 34 -25 66 -42 71 -39 19 12 48 89 48 129 0 22 -9 60 -20 83 l-20 44 45 -27 c45 -26 54 -21 34 18 -17 31 -43 50 -144 106 -108 60 -207 100 -362 147 -63 19 -132 46 -153 59 l-39 24 -26 -31z"/>
 <path d="M1413 2513 c9 -2 25 -2 35 0 9 3 1 5 -18 5 -19 0 -27 -2 -17 -5z"/>
 <path d="M1625 2360 c33 -33 62 -60 64 -60 3 0 -21 27 -54 60 -33 33 -62 60 -64 60 -3 0 21 -27 54 -60z"/>
 <path d="M1741 2271 c-1 -21 -3 -22 -18 -10 -17 12 -17 12 -1 -6 21 -22 31 -16 25 17 l-4 23 -2 -24z"/>
 <path d="M2880 2255 c19 -19 36 -35 39 -35 3 0 -10 16 -29 35 -19 19 -36 35 -39 35 -3 0 10 -16 29 -35z"/>
 <path d="M1326 2242 c-2 -4 9 -7 25 -8 16 -1 29 2 29 5 0 9 -48 12 -54 3z"/>
 <path d="M1335 2222 c-4 -4 -12 -7 -17 -7 -6 0 -13 -7 -15 -15 -4 -13 -3 -13 6 0 13 18 14 1 2 -19 -7 -11 -14 -11 -42 3 -35 17 -49 10 -49 -26 0 -17 -11 -22 -39 -19 -7 2 -11 -4 -9 -11 6 -17 258 -25 258 -8 0 43 -74 123 -95 102z"/>
 <path d="M925 2120 l-70 -6 67 -2 c37 -1 70 3 73 8 3 6 5 9 3 8 -2 -1 -34 -4 -73 -8z"/>
 <path d="M445 1774 l-30 -26 33 22 c17 12 32 23 32 26 0 7 -4 5 -35 -22z"/>
 <path d="M185 1459 c-9 -17 -15 -33 -13 -35 3 -2 12 12 21 31 21 43 13 47 -8 4z"/>
 <path d="M415 1150 c-8 -46 -24 -62 -32 -31 -9 35 -23 12 -23 -38 l0 -48 -62 14 c-35 7 -69 10 -77 8 -32 -12 21 -166 85 -251 33 -42 30 -54 -10 -54 -74 0 -51 -39 37 -65 46 -14 50 -13 87 10 60 38 141 127 173 191 15 29 14 32 -9 61 -13 18 -41 65 -62 106 -33 66 -83 137 -95 137 -3 0 -8 -18 -12 -40z"/>
 <path d="M2741 877 c-47 -50 -63 -72 -37 -47 45 42 132 140 124 140 -1 0 -41 -42 -87 -93z"/>
 <path d="M32 900 c0 -19 2 -27 5 -17 2 9 2 25 0 35 -3 9 -5 1 -5 -18z"/>
 <path d="M1637 736 c-26 -18 -79 -50 -117 -70 -79 -42 -80 -44 -55 -141 16 -60 66 -168 89 -193 14 -15 125 -46 134 -38 3 3 -7 15 -21 27 -15 11 -27 24 -27 28 0 4 19 12 43 18 53 15 122 64 142 102 l15 30 -65 48 c-67 50 -79 71 -45 80 31 8 24 23 -12 24 -18 1 -36 1 -40 0 -11 -1 -10 17 3 62 6 21 9 42 7 48 -2 5 -24 -6 -51 -25z"/>
 <path d="M2540 725 c-25 -13 -41 -24 -37 -25 11 0 87 39 87 45 0 7 0 7 -50 -20z"/>
 <path d="M660 665 c-25 -13 -41 -24 -37 -25 11 0 87 39 87 45 0 7 0 7 -50 -20z"/>
 <path d="M54 557 c3 -10 6 -21 6 -23 0 -2 33 -3 73 -2 l72 2 -65 3 c-46 3 -69 9 -79 21 -13 16 -13 16 -7 -1z"/>
 <path d="M1360 348 c41 -45 50 -53 50 -45 0 2 -21 23 -47 47 l-48 45 45 -47z"/>
 <path d="M1630 145 c0 -7 61 -37 66 -33 2 3 -12 12 -31 21 -19 9 -35 15 -35 12z"/>
 </g>
<g id="layer111" fill="#a2a2a2" stroke="none">
 <path d="M1929 2658 c-71 -98 -117 -231 -139 -398 -16 -126 -8 -187 38 -273 51 -98 136 -180 118 -114 -3 12 -9 52 -12 90 -8 77 4 87 30 28 20 -42 61 -91 78 -91 10 0 8 15 -8 70 l-7 25 24 -22 c51 -47 116 -66 241 -71 66 -3 118 -1 118 4 0 12 -34 67 -87 143 -24 33 -43 62 -43 65 0 3 24 -6 54 -19 30 -13 77 -27 105 -31 62 -8 64 0 21 86 -17 33 -28 60 -24 60 3 0 29 -20 56 -45 28 -25 59 -45 69 -45 53 0 73 154 29 226 l-25 39 28 -17 c15 -10 38 -25 52 -34 27 -18 31 -9 14 29 -25 54 -283 185 -488 246 -74 22 -151 52 -172 66 l-39 25 -31 -42z"/>
 <path d="M1645 2340 c21 -22 41 -40 44 -40 3 0 -13 18 -34 40 -21 22 -41 40 -44 40 -3 0 13 -18 34 -40z"/>
 <path d="M1741 2272 c-1 -15 -5 -21 -13 -16 -10 5 -10 4 -1 -6 17 -18 26 -8 20 22 l-4 23 -2 -23z"/>
 <path d="M2880 2255 c19 -19 36 -35 39 -35 3 0 -10 16 -29 35 -19 19 -36 35 -39 35 -3 0 10 -16 29 -35z"/>
 <path d="M1322 2195 c-13 -29 -17 -30 -56 -10 -16 9 -30 14 -31 13 -1 -2 -7 -16 -12 -33 -8 -23 -16 -29 -32 -27 -15 1 -21 -3 -19 -10 3 -9 38 -14 118 -16 144 -3 145 -3 125 45 -27 65 -73 83 -93 38z"/>
 <path d="M416 1145 c-7 -47 -24 -60 -33 -25 -9 35 -23 10 -23 -41 0 -43 -2 -50 -17 -45 -51 15 -116 26 -125 20 -25 -16 20 -148 81 -238 17 -25 31 -49 31 -54 0 -5 -18 -12 -40 -16 -22 -3 -40 -10 -40 -14 0 -11 50 -38 92 -50 33 -9 42 -7 80 18 70 45 178 171 178 208 0 7 -14 33 -31 58 -17 25 -40 66 -51 92 -21 48 -78 131 -89 132 -4 0 -10 -20 -13 -45z"/>
 <path d="M1637 736 c-26 -18 -79 -50 -117 -70 -39 -21 -70 -42 -70 -49 1 -45 35 -158 65 -217 38 -72 57 -85 148 -104 34 -8 34 0 2 26 -14 11 -25 23 -25 27 0 4 19 12 43 18 52 14 116 61 140 102 l18 30 -72 52 -72 53 29 23 29 23 -42 0 c-47 0 -49 3 -32 63 6 21 9 42 7 48 -2 5 -24 -6 -51 -25z"/>
 <path d="M93 533 c20 -2 54 -2 75 0 20 2 3 4 -38 4 -41 0 -58 -2 -37 -4z"/>
 <path d="M1360 348 c41 -45 50 -53 50 -45 0 2 -21 23 -47 47 l-48 45 45 -47z"/>
 </g>
<g id="layer112" fill="#cbc3bb" stroke="none">
 <path d="M1934 2662 c-32 -41 -79 -139 -102 -214 -31 -101 -43 -180 -43 -289 0 -96 1 -102 37 -169 21 -39 56 -87 77 -108 l38 -37 -7 98 c-4 53 -4 97 -1 97 3 0 18 -24 35 -52 31 -56 68 -95 78 -85 6 5 0 29 -22 81 -6 15 1 13 32 -12 21 -17 59 -39 84 -48 50 -18 270 -33 270 -17 0 9 -20 40 -94 147 -21 31 -37 58 -35 61 3 2 32 -7 65 -20 33 -13 79 -27 102 -31 53 -8 54 3 12 86 -29 57 -28 79 1 43 21 -25 90 -73 105 -73 44 0 61 158 23 219 -11 18 -18 35 -15 38 2 2 23 -8 45 -23 47 -31 62 -27 37 10 -43 66 -282 185 -496 247 -58 17 -125 41 -149 55 -24 13 -46 24 -50 23 -3 0 -16 -12 -27 -27z"/>
 <path d="M2880 2255 c19 -19 36 -35 39 -35 3 0 -10 16 -29 35 -19 19 -36 35 -39 35 -3 0 10 -16 29 -35z"/>
 <path d="M1322 2193 c-21 -29 -18 -29 -83 5 -4 1 -10 -13 -13 -33 -7 -33 -10 -36 -33 -30 -18 4 -24 2 -21 -7 6 -18 248 -24 248 -7 0 31 -26 78 -47 88 -31 14 -28 15 -51 -16z"/>
 <path d="M416 1141 c-7 -46 -25 -63 -33 -32 -10 38 -23 22 -23 -30 0 -45 -2 -50 -20 -44 -51 16 -122 22 -126 10 -14 -36 32 -154 93 -237 18 -25 30 -49 26 -51 -5 -3 -25 -8 -46 -12 -31 -6 -36 -10 -26 -22 16 -19 75 -43 106 -43 52 0 174 110 215 195 l20 41 -31 46 c-17 25 -41 68 -53 94 -24 52 -75 124 -88 124 -4 0 -10 -18 -14 -39z"/>
 <path d="M1613 721 c-39 -25 -92 -58 -116 -72 l-44 -26 7 -54 c10 -66 40 -148 75 -201 28 -42 76 -68 122 -68 l28 1 -27 22 c-32 26 -35 37 -10 37 53 1 182 93 182 130 0 8 -30 37 -67 64 l-67 49 29 23 30 24 -42 0 c-48 0 -51 6 -32 73 6 22 9 40 7 42 -2 1 -35 -19 -75 -44z"/>
 </g>
<g id="layer113" fill="#fbfcfb" stroke="none">
 <path d="M1929 2648 c-44 -61 -63 -101 -92 -198 -34 -108 -47 -193 -47 -298 0 -73 4 -90 31 -145 32 -63 94 -147 108 -147 5 0 6 41 3 90 -5 100 4 114 33 49 19 -42 72 -106 80 -97 3 3 -2 24 -10 48 -22 62 -19 68 18 32 49 -47 123 -72 237 -79 135 -8 135 -12 26 146 -27 39 -47 73 -45 76 3 2 27 -7 54 -20 48 -22 155 -48 164 -39 3 2 -10 36 -29 74 -19 38 -31 72 -28 75 3 3 23 -11 44 -31 21 -19 51 -42 65 -49 24 -13 28 -12 45 6 15 17 19 37 19 98 0 64 -4 81 -24 109 -13 18 -21 36 -18 39 3 3 26 -9 51 -26 55 -38 60 -39 41 -2 -15 31 -81 74 -203 135 -98 49 -156 72 -292 113 -63 19 -134 46 -157 59 l-42 25 -32 -43z"/>
 <path d="M1325 2190 c-15 -30 -16 -30 -51 -15 -20 8 -38 15 -39 15 -1 0 -5 -13 -8 -30 -5 -21 -12 -30 -27 -30 -11 0 -20 -5 -20 -11 0 -12 223 -10 234 2 13 13 -18 70 -45 84 -28 15 -29 14 -44 -15z"/>
 <path d="M427 1172 c-3 -4 -7 -24 -11 -44 -7 -39 -22 -50 -32 -23 -11 29 -22 5 -17 -37 l6 -41 -39 7 c-21 4 -58 10 -80 13 l-42 5 9 -46 c11 -62 41 -127 85 -189 34 -48 35 -51 18 -64 -10 -7 -31 -13 -47 -13 -43 0 -20 -22 47 -45 l55 -19 53 37 c55 37 107 94 147 160 l23 37 -37 55 c-20 30 -46 77 -57 103 -22 49 -74 117 -81 104z"/>
 <path d="M1610 713 c-36 -24 -84 -52 -107 -63 -38 -18 -43 -24 -43 -53 0 -83 73 -248 121 -273 15 -7 45 -16 66 -19 l38 -6 -27 22 c-16 11 -28 24 -28 28 0 4 25 15 56 25 39 12 70 31 100 62 24 24 44 48 44 54 0 5 -29 31 -65 57 -36 26 -65 51 -65 56 0 5 9 16 21 26 21 17 21 17 -16 18 -20 1 -39 3 -42 6 -3 3 0 22 7 41 20 62 10 65 -60 19z"/>
 </g>

</svg>